<svg height="960" viewBox="0 0 960 960" width="960" xmlns="http://www.w3.org/2000/svg"><g fill="none" fill-rule="evenodd" stroke="#000" stroke-linejoin="round"><path d="m128.278844 29.4475776c8.000207-4.6795945 17.362125-7.2381077 27.280003-6.9329863l.744276.0282059 683.09065 32.0974142c13.456545.632303 25.492644 6.4394138 34.221595 15.4428705 8.781936 9.0581067 14.214129 21.352171 14.380732 34.8665121l.011148 226.193838c19.391723 46.720823 29.899086 99.417286 28.931349 155.036509-.88205 50.694449-11.20672 98.629261-28.932955 141.560473l-.005642 230.288856c0 13.493321-5.25226 25.804709-13.85844 34.950037-8.658569 9.201-20.712819 15.194966-34.228301 15.966735l-682.613259 30.538958-.063984 6.859486-55.12182-23.893875c-9.0264389-3.912726-16.4803691-10.287213-21.7143558-18.136883-5.2684095-7.901295-8.2870333-17.297365-8.3967539-27.181886l-.0030863-791.556085c0-10.1743571 3.082003-19.8344526 8.5137239-27.9085839 5.4658901-8.124923 13.3115194-14.6433323 22.7900271-18.4643785z" stroke-width="40"/><g stroke-linecap="round" stroke-width="20"><path d="m631.020085 146.883074-.003085 1.266926.514549.016132c76.42439 2.783422 145.055036 40.34337 194.746315 99.676919l1.530792 1.841986c50.309851 61.006156 80.727758 144.575815 79.131454 236.320937-1.596313 91.745653-34.903266 174.199834-87.30503 233.407724-52.937783 59.813529-125.31434 95.933257-204.429505 94.547873-6.018247-.105385-11.989529-.426517-17.908586-.956926l-52.490129.003506c-8.76763.785631-17.640754 1.110328-26.601285.95342-79.114478-1.385372-150.18991-40.0166-201.014231-101.646608-50.309851-61.006156-80.727758-144.575815-79.131454-236.320937 1.496038-85.982534 30.843708-163.80935 77.659931-221.979806 45.729593-56.820287 108.096674-94.89294 177.600408-103.938059l.003651-1.581957 21.318863-.262057c5.02027-.216837 10.07193-.28267 15.151682-.193718l.627978.011782z"/><path d="m622.428 149.838h.058l2.228261.008019 2.236739.027981.085733.001401.041267.000599h.006l2.323118.051493c77.353008 2.064623 146.868551 39.651825 197.055983 99.386389l1.5303 1.835513c50.29278 60.790731 80.699131 144.065469 79.103372 235.486431s-34.889833 173.583805-87.273542 232.582311c-52.909645 59.590855-125.246445 95.580102-204.320934 94.199852s-150.111216-39.872092-200.908939-101.273166c-50.29278-60.790731-80.699131-144.065469-79.103372-235.486431 1.595758-91.420961 34.889833-173.583804 87.273542-232.58231 51.851452-58.399039 122.360743-94.131092 199.584651-94.237934z"/><path d="m448.425868 271.23858c46.919509-52.844309 111.072225-84.738913 181.1885-83.515029l-.125368-.002551.077577.001722.041423.000278h.006l2.054495.045858c68.592183 1.828794 130.245505 35.141764 174.75228 88.114492l1.357085 1.627742c44.541743 53.839242 71.482217 127.58877 70.068886 208.558482-1.413332 80.969712-30.911216 153.734105-77.304788 205.986064-46.919508 52.844309-111.072224 84.738914-181.1885 83.51503-70.116275-1.223884-133.116805-35.337957-178.163491-89.787542-44.541744-53.839241-71.482218-127.588769-70.068886-208.558481 1.413331-80.969713 30.911216-153.734105 77.304787-205.986065z"/><path d="m372.687282 481.891367h505.167868"/><path d="m637.895723 190.679774v583.867705"/><path d="m126.627338 43.8282979c7.641069-7.0716264 17.954592-11.2455133 29.14311-10.8898206l.590503.0229548 683.02414 32.0949921c10.817894.5083279 20.493929 5.1766543 27.511264 12.4146759 7.047164 7.2687883 11.411819 17.1295085 11.560392 27.9710069l.007488 228.797539c19.086709 45.695549 29.423657 97.294001 28.475875 151.766328-.86421 49.66916-11.021931 96.622245-28.472588 138.630365l-.006879 233.820223c0 10.847459-4.222261 20.744803-11.140898 28.096877-6.948115 7.383398-16.61603 12.198639-27.457664 12.83279l-683.552834 30.582299c-.610379.027305-1.221293.040963-1.832282.040963-11.199319 0-21.349779-4.490408-28.749483-11.768719-7.422486-7.300721-12.075867-17.406964-12.24573-28.599845l-.004787-.59093v-815.1318531c0-.6417479.015067-1.2834073.045189-1.9244478.525671-11.1869748 5.487569-21.1154779 13.105184-28.1653982z"/></g></g></svg>