<?xml version="1.0" encoding="UTF-8"?>
<svg width="960px" height="960px" viewBox="0 0 960 960" version="1.1" xmlns="http://www.w3.org/2000/svg" xmlns:xlink="http://www.w3.org/1999/xlink">
    <title>nl.philips.hue/assets/icon</title>
    <g id="nl.philips.hue/assets/icon" stroke="none" stroke-width="1" fill="none" fill-rule="evenodd">
        <path d="M315.907549,57.529985 L785.184777,66.7695828 C868.956398,68.418962 936,136.413126 936,219.723103 L936,741.276285 C936,824.586262 868.956398,892.580426 785.184777,894.229805 L315.907549,903.469403 C230.948907,905.142153 160.712506,838.018562 159.030157,753.544666 C159.010053,752.535195 159,751.525551 159,750.515883 L159,210.483505 C159,125.993048 227.886089,57.5 312.861386,57.5 C313.876848,57.5 314.892286,57.5099955 315.907549,57.529985 Z" id="Rectangle" stroke="#000000" stroke-width="10" stroke-linecap="round" stroke-linejoin="round"></path>
        <path d="M294.888087,52.0013532 C295.845233,52.0013532 296.802355,52.0108304 297.759313,52.0297833 L307.75594,52.2277877 C307.779939,52.2282519 307.803938,52.2287216 307.827937,52.2291969 L477.921,55.5973532 L789.871227,61.776279 C868.817962,63.3398542 932,127.785631 932,206.747849 L932,754.251571 C932,833.213789 868.817962,897.659566 789.871227,899.223141 L780.229625,899.414093 C780.21727,899.41434 780.204914,899.414587 780.192558,899.414831 L623.108,902.525353 L297.759313,908.969637 C295.493928,909.014504 293.23965,909.007169 290.997628,908.948738 L291,909.164366 L287.384386,908.809957 C282.659857,908.570021 277.993199,908.103096 273.395361,907.419706 L154.66225,895.616755 C80.4987975,888.24728 24,825.85606 24,751.327362 L24,209.690779 C24,135.36544 80.1999549,73.0752308 154.133618,65.4548935 L283.080321,52.164366 L283.083624,52.4749241 C286.977048,52.1612373 290.913896,52.0013532 294.888087,52.0013532 Z" id="Combined-Shape" stroke="#000000" stroke-width="20" stroke-linecap="round" stroke-linejoin="round"></path>
        <ellipse id="pair" fill="#0074CC" cx="579.182243" cy="481" rx="152.814433" ry="162"></ellipse>
        <ellipse id="Oval" stroke="#000000" stroke-width="10" stroke-linecap="round" stroke-linejoin="round" cx="579.182243" cy="481" rx="152.814433" ry="162"></ellipse>
        <path d="M734.513464,217.617693 C746.122668,217.638999 755.533787,208.547721 755.533787,197.311718 C755.533787,186.075716 746.122668,176.836189 734.513464,176.674657 C722.904261,176.513125 713.493142,185.604403 713.493142,196.980594 C713.493142,208.356786 722.904261,217.596313 734.513464,217.617693 Z" id="Oval" stroke="#000000" stroke-width="10" stroke-linecap="round" stroke-linejoin="round"></path>
        <path d="M577.041004,217.32815 C588.650208,217.349493 598.061327,207.832531 598.061327,196.071421 C598.061327,184.310311 588.650208,174.6451 577.041004,174.483568 C565.431801,174.322036 556.020682,183.838998 556.020682,195.740297 C556.020682,207.641596 565.431801,217.306807 577.041004,217.32815 Z" id="Oval" stroke="#000000" stroke-width="10" stroke-linecap="round" stroke-linejoin="round"></path>
        <path d="M419.568544,217.039082 C431.177748,217.059988 440.588866,207.117342 440.588866,194.831124 C440.588866,182.544906 431.177748,172.454011 419.568544,172.292479 C407.959341,172.130947 398.548222,182.073593 398.548222,194.5 C398.548222,206.926407 407.959341,217.017302 419.568544,217.039082 Z" id="Oval" stroke="#000000" stroke-width="10" stroke-linecap="round" stroke-linejoin="round"></path>
        <ellipse id="Oval" stroke="#000000" stroke-width="10" stroke-linecap="round" stroke-linejoin="round" cx="571" cy="481" rx="178.283505" ry="189"></ellipse>
    </g>
    <style type="text/css">
	#pair {
		animation: pair 2s infinite;
	}
	
	@keyframes pair {
		0%, 20%, 80%, 100% {
			fill: rgba(255,255,255,0);
		}
		50% {
			fill: #0074CC;
		}
	}
</style>
</svg>