<svg height="960" viewBox="0 0 960 960" width="960" xmlns="http://www.w3.org/2000/svg"><g fill="none" fill-rule="evenodd" stroke="#000" stroke-linecap="round" stroke-linejoin="round"><path d="m199.249968 251.752082 2.780433-1.230585c46.13086-20.434782 103.519161-40.82758 168.970002-17.404833l437.622408 156.881529c27.140913 9.723043 47.696355 17.080793 58.035024 20.769471 38.291367 13.66177 57.211843 27.60401 56.769283 41.82672l-.050494.951273c-1.770486 7.116409-7.020432 14.327454-13.113691 18.34357l-1.682058 1.070844c-2.805033 1.774943-7.654594 4.831186-9.604548 6.050433l-.467896.291907-7.464669 4.544507-142.936369 88.186085-3.00439 1.808442c-13.212509 7.914893-22.383459 12.869919-31.817307 16.970518l-1.049506.452213-1.035684.438562c-13.706349 5.754099-27.105877 9.138864-41.89385 10.273855-33.90888 2.602537-76.526159-6.751897-136.507362-31.428312l-7.418204-3.056734c-124.512907-51.383114-404.848314-177.735842-459.2607816-202.272768-23.0389052-10.389235-34.1491299-20.474867-34.28157-28.279205-.0887615-5.345852 5.0391381-11.72285 15.89288-18.514504 7.2153695-3.893584 15.3483159-7.406188 23.4636716-10.956049l6.3547343-2.784493c26.5457517-11.602095 78.4134777-33.790742 121.6999437-52.932446z" stroke-width="20"/><path d="m22.0918115 397.773393v-51.687087c.0000008-12.52966 7.5426042-23.827357 19.1148138-28.631142 102.5392987-42.565492 166.0058287-69.214185 190.3995907-79.946078 38.812891-17.075505 82.213054-23.856402 162.000347 3.109681 79.787294 26.966083 457.89874 163.302155 481.656622 171.593158 39.199408 13.679773 63.318416 26.233945 62.745284 48.266474-.672087 25.836584-1.344174 51.673167-2.016262 77.509751-.405251 15.578791-8.506192 29.943699-21.627784 38.35124l-163.550813 104.793702c-53.942333 34.563061-121.670578 39.614442-180.143227 13.435635l-521.8096591-233.61956c-15.3724104-6.882387-25.4671622-21.936321-25.9985499-38.770687z" stroke-width="40"/></g></svg>