<svg height="960" viewBox="0 0 960 960" width="960" xmlns="http://www.w3.org/2000/svg"><g fill="none" fill-rule="evenodd" stroke="#000" stroke-linejoin="round"><path d="m780.300064 158.520668c-179.170952-26.666666-434.82813-26.666666-614 0" stroke-width="20"/><path d="m588.624461 85.5206684s16.66758 273.9999996-115.571647 273.9999996h.496228c-132.240143 0-115.573479-273.9999996-115.573479-273.9999996" stroke-width="20"/><path d="m146.300064 98.898519c187.033252-31.1342011 466.966748-31.1342011 654 0v53.112652c-3.930911 3.846858-8.104476 7.061552-12.176494 8.79234-4.027271 1.711769-9.168544 2.487787-14.59948 2.66011l-.04509.000379-.016102.332896c-4.736504 92.715258-20.985021 171.009246-41.540645 232.471281l-.657484 1.955837c-30.978578 91.681806-72.663945 145.326222-100.480668 158.8981-2.220889 1.083427-3.559416 2.947594-4.514014 5.096423-2.31827 5.218495-2.850304 11.735247-2.850304 18.787243 0 58.193946-1.635583 99.526123-2.991632 133.751553-.56316 14.213642-1.07782 27.185817-1.401601 39.633958-.284027 10.907339-1.948783 13.725298-8.538025 20.227453-2.74947 2.713921-6.063933 6.482337-9.665903 10.544344-16.115437 18.173666-36.525471 34.35758-47.793397 34.35758h-159.457404c-11.268322 0-31.676495-16.18194-47.791793-34.355198-3.602634-4.062699-6.917767-7.83185-9.666352-10.544681-6.591315-6.5042-8.256071-9.322159-8.540114-20.230092-.323765-12.447547-.838425-25.419722-1.401585-39.633364-1.356049-34.22543-2.991632-75.557607-2.991632-133.751553 0-7.051996-.532034-13.568748-2.850304-18.787243-.954598-2.148829-2.293125-4.012996-4.515157-5.096981-27.815136-13.571379-69.499891-67.215746-100.478428-158.897432-20.866084-61.753649-37.411489-140.725487-42.199103-234.427068l-.017353-.333056-.045358-.000313c-5.212358-.165493-10.15905-.887291-14.109517-2.459234l-.488567-.200942c-4.072347-1.730928-8.246258-4.946001-12.176494-8.792186z" stroke-width="40"/><path d="m622.300064 559.520668c-22.589491 5.7961-74.798685 7.915781-147.432026 8-72.635315-.084219-127.978483-2.2039-150.567974-8" stroke-width="20"/><g fill="#000" stroke-width="11"><path d="m524 835h28v35h12v30.152277c-11.011775 2.41244-22.022642 3.29187-33.033509 2.639211-3.842902-.227693-7.685803-.641597-11.527796-1.242633-2.480171-.38717-4.959433-.853618-7.438695-1.396578v-30.152277h12z"/><path d="m407 835h28v35h12v30.152277c-11.011775 2.41244-22.022642 3.29187-33.033509 2.639211-3.842902-.227693-7.685803-.641597-11.527796-1.242633-2.480171-.38717-4.959433-.853618-7.438695-1.396578v-30.152277h12z"/></g></g></svg>