<svg height="960" viewBox="0 0 960 960" width="960" xmlns="http://www.w3.org/2000/svg"><g fill="none" fill-rule="evenodd"><path d="m473.475526 41.9606916c7.789077-.0001955 19.297619-3.8961863 45.633549 29.9465865 12.006559 15.4289318 28.79643 41.1939039 52.845361 84.3714729 58.823048 105.612903 118.444527 347.642031-.496524 557.733086-.502967.888414-2.82944 7.648386-5.359882 14.896507l-.271825.778207-.13636.390045-.563247 1.617784c-2.327758 6.716256-4.706494 13.375069-5.101532 15.879765-.847205 6.938443-1.467691 14.645-2.093023 22.968704-.413535 9.581518-.825393 19.715658-1.062447 29.287999-.235928 11.057766-.234838 21.537401.00575 31.357569v9.930074l-30.179529 42.847795-18.846258 22.746812-.109559.085902-.028054.039639c-.054343.073251-.108632.146391-.162889.219416l-.488066.653991c-4.884257 6.506404-10.057966 11.972354-31.883792 13.216033-.384842.021929-.764688.041966-1.141343.059801-.372022-.018062-.748792-.037912-1.130384-.059581-23.741757-1.348246-28.141534-7.584531-31.671756-12.778428l-.234262-.34465c-.038897-.057163-.077737-.114181-.116546-.171045l-.232678-.339286c-.116354-.168659-.232882-.335794-.350268-.501185l-.039962-.055705-.032099-.025011-18.845614-22.746846-30.179429-42.847652v-9.929462c.240386-9.836919.241078-20.335504.004557-31.414013-.15976-8.593455-.554075-17.583647-.930897-26.222736-.044068-1.010308-.087931-2.015914-.131318-3.016132-.628913-8.376914-1.253431-16.129075-2.109327-23.100936-.3316-2.32897-2.454993-8.537069-4.905525-15.131651l-.352144-.944335-.355645-.94733-.358198-.948064-.359803-.946533c-3.002402-7.875115-6.073054-15.35513-6.740819-16.547317-117.409005-209.614902-57.978892-450.421098.654217-555.691352 23.810914-42.75023 40.499982-68.4243391 52.457183-83.8946819 26.273119-33.9924173 37.883676-30.4096211 45.400387-30.4232565z" stroke="#000" stroke-linejoin="round" stroke-width="40"/><path d="m327.28594 484.960469s73.243797-11 146.488479-11c87.089784 0 146.511521 11 146.511521 11" stroke="#000" stroke-linejoin="round" stroke-width="20"/><path d="m389.214719 825.960469c-6.527956 38 21.355594 57 83.650651 57s88.84355-19 79.64548-57c-25.166341 6.046899-51.67684 9.070349-79.531498 9.070349s-55.776202-3.02345-83.764633-9.070349z" fill="#000"/><g stroke="#000" stroke-linejoin="round" stroke-width="20"><path d="m388.28594 764.960469c22.618916 5.333334 55.285582 8 98 8"/><path d="m388.28594 797.960469c22.618916 4.666667 55.285582 7 98 7"/><path d="m362.435481 719.652685c48.534093 4.666667 85.0556 7 109.564519 7s57.468058-2.333333 98.877417-7"/></g></g></svg>