<svg height="960" viewBox="0 0 960 960" width="960" xmlns="http://www.w3.org/2000/svg"><g fill="none" fill-rule="evenodd" stroke="#000" stroke-linejoin="round"><g stroke-width="20"><path d="m564.984106 396.412376c84.102943 86.116809 149.892892 174.246005 188.270979 247.115133 37.319637 70.858857 48.726795 127.620429 26.036194 154.728396l.003172.003174c-.335194.448608-.527639.703595-.594255.790354-.087764.114268-.292898.377719-.606944.779773-2.444693 3.119093-5.004642 5.953575-7.676675 8.501328-2.692123 2.56574-5.503731 4.850042-8.433768 6.851848l-.007402-.009522c-28.283154 22.699126-86.381625 8.378595-157.018665-31.587697-72.28763-40.900538-158.046451-108.686855-238.39036-190.954526-78.424741-80.302896-139.298869-158.718254-177.923329-225.59995-39.562368-68.506841-55.83565-125.144622-43.838466-159.665197l-.003172-.001058c1.60618-5.371654 4.264467-10.895666 7.549787-16.087453 3.432299-5.425614 7.556132-10.501018 11.881928-14.669684.362686-.384068.733831-.760729 1.112378-1.131042 26.323804-25.739925 84.421218-13.574615 157.069419 26.900592 71.918601 40.068921 158.449318 107.906025 242.546974 194.012254l.00423-.004232.001057.001058z"/><path d="m518.543826 439.961906c55.112474 57.180193 97.957715 115.993434 122.674422 164.856722 25.081195 49.583154 31.501872 89.260143 13.317505 107.277079-18.184367 18.015867-57.159294 10.593988-105.472909-15.97162-47.587799-26.166157-104.583811-70.944154-159.708925-128.132891l-.004214.004272-.001053-.001068-.017909-.026701c-55.112473-57.180193-97.957715-115.993435-122.674422-164.856722-25.081195-49.583154-31.501871-89.260144-13.318558-107.277079 18.183313-18.015868 57.159295-10.59292 105.473962 15.97162 47.595173 26.168293 104.600666 70.955902 159.732101 128.156388z"/><path d="m482.874587 472.890702c34.186154 34.808511 61.866292 69.558702 78.981215 97.601041 17.600876 28.838671 24.01098 51.028872 15.059214 59.732325-8.947503 8.700272-31.092466 1.810038-59.662452-16.361389-27.773918-17.665635-62.044261-45.995332-96.230414-80.800662l-.004263.004241-.001066-.00106-.003197-.003181-.017051-.025449c-34.186153-34.808511-61.865225-69.557641-78.979083-97.59998-17.59981-28.837612-24.009914-51.026751-15.058148-59.731265 8.947502-8.699212 31.092465-1.810038 59.662452 16.36245 27.772852 17.665634 62.04426 45.995332 96.230414 80.800661l.004263-.004241.001065.00106z"/><path d="m489.937164 855.964941c-9.848191-3.508262-19.660554-6.662511-29.466403-9.477544l-.107482-.054639-.107482-.054638-.036913-.018213-.071655-.036426-.108568-.054639-.111825-.056915-.106396-.054639-.109654-.055777-.077083-.038702-.03257-.017075-.11074-.055777-.110739-.056915-.042341-.021628-.068398-.035288-.111825-.056915-.111825-.056915-.007599-.003415-.105311-.053501-.112911-.058053-.084683-.043256-.028227-.014798-.113997-.058054-.113996-.058053-.048856-.025043-.06514-.033011-.113996-.059192-.115082-.059192-.013029-.00683-.103139-.0535-.116168-.059192-.092282-.047809-.024971-.012522-.117253-.06033-.117253-.06033-.05537-.028458-.062969-.031872-.118339-.060331-.118339-.061468-.017371-.009107-.100968-.052362-.119425-.061468-.099882-.051224-.020628-.010245-.120511-.062607-.12051-.062607-.061884-.031872-.058626-.030735-.121596-.063745-.122682-.063745-.023885-.012521-.098797-.051224-.123767-.063745-.107482-.055777-.016285-.007969-.124853-.064883-.124853-.064884-.069484-.035287-.056455-.029596-.125939-.064884-.127024-.066021-.030399-.015937-.097711-.050085-.127025-.066022-.117253-.061469-.010857-.005691-.129196-.06716-.129195-.06716-.077084-.040979-.053198-.02732-.130281-.06716-.130282-.068298-.035827-.019351-.09554-.048948-.131367-.068298-.127024-.066022-.137881-.072852-.133539-.069436-.085768-.044394-.048856-.025043-.134624-.070575-.13571-.070575-.043427-.022766-.092283-.047809-.136795-.071713-.136796-.071714c-73.087883-38.025145-144.464736-99.350296-205.210624-167.474555-68.848308-77.211364-123.996438-163.095488-152.4813868-233.669384l-.0043427-.010245-.0043427-.010245-.0043428-.010244-.0043427-.011383-.0043427-.011383-.0043427-.011383-.0043427-.011384-.0054284-.011383-.0054284-.011383-.0054284-.011383-.0054284-.011383-.0054284-.011383-.0054284-.011383-.0054284-.012521-.0054284-.012522-.0054283-.012521-.0054284-.012521-.0054284-.012522-.0054284-.012521-.0054284-.012522-.0054284-.013659-.0054284-.01366-.0054284-.01366-.0065141-.013659-.006514-.01366-.0065141-.01366-.0065141-.013659-.0065141-.014798-.006514-.014798-.0065141-.014798-.0065141-.014798-.006514-.014798-.0065141-.014798-.0065141-.014798-.0065141-.014798-.006514-.015937-.0065141-.015936-.0075997-.015936-.0075998-.015937-.0075997-.015936-.0075998-.015936-.0075997-.017075-.0075998-.017074-.0075997-.017075-.0075998-.017075-.0075997-.017074-.0075998-.017075-.0075997-.018213-.0075998-.018213-.0075998-.018212-.0086854-.018213-.0086854-.018213-.0086854-.018213-.0086855-.018213-.0086854-.018213-.0086854-.019351-.0086855-.019351-.0086854-.019352-.0086854-.019351-.0086854-.019351-.0086855-.019351-.0097711-.02049-.0086854-.020489-.0086854-.019352-.0260563-.055777-.0260563-.058053-.0162852-.036426-.0108568-.022766-.0282276-.060331-.0282277-.062606-.006514-.014798-.0217136-.048948-.0293133-.064883-.0249706-.056915-.0043427-.010245-.030399-.068299-.0314847-.069436-.0151995-.033011-.0173709-.037564-.0325703-.071714-.0325704-.072851-.003257-.00683-.0314847-.068299-.033656-.076266-.023885-.054639-.0108568-.022766-.0347417-.078543-.0358274-.08082-.0108568-.026181-.0249706-.055777-.036913-.083097-.0347417-.079681-.0021714-.005692-.0379988-.086511-.0379987-.08765-.0217136-.048947-.0173708-.039841-.0390845-.089926-.0401701-.092203-.006514-.015936-.0336561-.077405-.0412558-.094479-.0325703-.076267-.0086855-.020489-.0412557-.096757-.0423415-.097894-.0173709-.040979-.0249706-.059192-.0434271-.101309-.0434272-.102448-.0434271-.104724-.0727405-.174161-.0162851-.037564-.091197-.217417-.0119425-.029596-.033656-.08082-.08794-.211725-.0054284-.012521-.0466842-.114969-.0477698-.116107-.023885-.059192-.1205103-.297099-.0054284-.014798-.0922827-.229938-.036913-.092202-.0130282-.031873c-.2312495-.582813-.4733559-1.21002-.7219762-1.879345"/><path d="m874.63717 880.847242c-31.131253 30.161277-103.094519 13.840886-194.275444-36.927152-92.673351-51.599513-204.424579-138.736121-313.284503-249.177522-108.86315-110.445665-194.160394-223.221597-244.062008-316.271281-42.2351942-78.753619-59.0916389-142.817818-43.1631212-178.377297l.0161285-.025584-.0032257-.002132c2.5848627-5.7627721 6.0299127-10.7782811 10.3706327-14.9836335 31.1312527-30.1612777 103.0934437-13.8408861 194.2743687 36.9271515 92.672275 51.599514 204.423503 138.735055 313.284503 249.176456l.035482.0533.002151.002132.001075.001066.008602-.008528c108.84272 110.429676 194.122761 223.187485 244.017923 316.224378 49.091962 91.543432 63.89686 163.239094 32.777436 193.388646z"/></g><path d="m72.8489593 65.9367344c20.2579565-19.8391313 51.9728297-27.5379039 93.9151507-20.1969423 36.590896 6.4043276 81.425986 24.2466942 131.278989 52.3054532 92.969425 52.3262417 205.071496 140.5037107 314.124885 252.3344557 109.107848 111.89383 194.496641 226.248849 244.554703 320.602661 25.278976 47.648833 49.540375 110.13245 53.446051 147.408907 2.338912 22.322983-.786515 40.878175-7.890005 55.861972-7.932382 16.732226-20.837969 29.40388-38.162761 37.792782-26.374439 12.770865-122.956687 1.824372-163.480383-6.049094-7.045103-1.368813-14.320277-2.822636-21.825085-4.361454-49.224326-10.092099-108.260771-23.815324-177.106767-41.173196-.285738-.072042-.571297-.144059-.846565-.217975-.237033-.08113-.474225-.162111-.711576-.242944-37.391845-12.73437-73.900999-20.150099-111.775766-23.155512-38.348145-3.04315-78.09672-1.579955-121.179447 3.492435l-.503995.055915c-5.187959.551034-37.720719 3.420945-68.859503-3.640114-19.294968-4.375172-37.872333-12.595438-51.184503-25.996592-14.287742-13.415212-24.374369-29.850707-30.329609-52.922933-5.134187-19.887814-7.091118-45.263689-5.812505-79.129214l-.04955-4.540802c-.118882-10.908301-.272717-25.016133-.534908-39.563321l-.04231-2.300173-.044174-2.305061c-.015043-.7689-.030408-1.538212-.046105-2.307534l-.062657-2.986906c-.327968-15.207921-.789345-30.212418-1.476459-41.810042-5.96272-100.662452-25.983449-211.690518-51.4962949-353.618775l-.8045285-4.475994-.2678203-1.49-.5735064-3.190649c-3.8929134-21.657833-7.5101924-41.782274-8.3412417-46.439572-.140953-.795427-3.4931298-24.757636-.6845162-48.668873 1.5935273-13.572441 5.2514568-27.10501 11.6310878-37.7630022 3.8749205-8.103864 8.9250087-15.2192713 15.1416745-21.3079064z" stroke-width="40"/></g></svg>