<svg height="960" viewBox="0 0 960 960" width="960" xmlns="http://www.w3.org/2000/svg"><g fill="none" fill-rule="evenodd" stroke="#000" stroke-linejoin="round"><path d="m765.954882 391.775895c31.841282 41.771951 57.385585 82.634913 76.851786 121.566681 20.455621 40.913461 34.195224 79.692102 41.472674 115.154073 7.397058 36.045158 8.020328 69.20452 1.123676 97.247969-6.609428 26.876261-20.114695 49.057709-41.167549 64.596043-6.353122 4.690742-13.244893 8.672863-20.63056 11.958581l.003255-.001629c-431.777161 216.989337-843.5421487-426.363049-599.498611-664.180942l-.056143.064346c15.462139-16.845618 36.628907-28.409162 63.436837-33.701009 33.002387-6.5144207 71.289549-2.736741 112.101525 9.290258 43.055259 12.687563 88.947779 34.566829 134.418006 63.22523 41.621575 26.233615 83.610928 58.816307 123.383849 95.647464 39.171621 36.274033 76.181324 76.654808 108.561255 119.132935" stroke-width="20"/><path d="m389.411804 113.701447c43.929182 12.943017 90.753215 35.262805 137.146382 64.498221 42.466398 26.761809 85.308039 60.000528 125.888258 97.573251 39.966714 37.004384 77.727629 78.198194 110.764798 121.531586 32.487587 42.612997 58.550381 84.298703 78.411701 124.014332 20.870823 41.737222 34.889309 81.296641 42.314474 117.472611 7.547202 36.770899 8.183123 70.5979 1.146484 99.205982-6.743584 27.417394-20.522977 50.045448-42.003155 65.896635-6.482076 4.785186-13.513734 8.847484-21.049313 12.199357l.00332-.001662c-143.059864 71.883126-283.966532 51.213193-400.505397-17.787404l-6.284907 10.782774c-197.850571 40.176415-382.2343569-16.675158-354.4587243-44.413668l164.6515793-158.930548c-103.053104-160.173607-128.5404808-356.646391-15.069604-467.204866l-.057282.065641c15.775984-17.184791 37.372389-28.981158 64.724458-34.379552 33.67226-6.6455839 72.736563-2.791843 114.376928 9.47731z" stroke-width="40"/><g stroke-width="20"><path d="m284.176702 125.427119c33.403119-6.63975 72.701981-2.39582 114.713517 10.401529 41.993251 12.792369 86.717461 34.192099 131.066018 61.897973 41.341678 25.82706 83.045711 57.844913 122.453446 93.82952 39.304679 35.890833 76.561556 75.870411 108.930801 117.667394 17.727122 22.889337 33.4347 45.43594 47.210826 67.479645 10.574774 17.308495 19.986853 34.319069 28.276133 50.954544 9.52677 19.11843 17.520181 37.722345 24.019295 55.670666 6.658683 18.386489 11.761568 36.114896 15.35104 53.030865 7.300284 34.403715 8.086494 65.983399 1.692097 92.628706-6.072765 25.303414-18.633841 46.164562-38.255846 60.761058h-.006648c-10.52657 7.857162-22.705345 13.603977-36.267882 17.328412-13.93902 3.828167-29.35073 5.53022-45.942585 5.202424-16.438936-.325307-34.081287-2.685444-52.688533-7.004061-18.702821-4.340194-38.367212-10.658787-58.749663-18.87777-22.042136-8.887855-44.935306-20.030453-68.267291-33.287546-22.943867-13.03718-46.326549-28.130766-69.754109-45.145488-24.148114-17.538368-48.378507-37.150568-72.24322-58.699674-22.97711-20.747456-45.639238-43.308167-67.589953-67.562632-23.259681-25.622913-44.366011-51.600178-63.195157-77.529311-19.287907-26.56149-36.160671-53.046633-50.486979-79.023898-14.197489-25.744903-25.926644-50.97695-35.038701-75.26046-9.127847-24.324175-15.64109-47.71973-19.390962-69.748497-4.575975-26.880988-5.008141-51.254124-1.303147-72.503649 9.822637-43.443434 38.323163-72.783313 85.467503-82.20975"/><path d="m682.294248 491.780733c-8.225239-16.202886-19.021072-33.210377-32.479722-50.599348-13.699592-17.700485-29.36244-34.530563-45.943357-49.652313-16.833491-15.35247-34.590867-28.925812-52.181245-39.844623-19.176438-11.903328-38.512395-20.986373-56.630352-26.243794-17.004642-4.935913-32.915078-6.494315-46.574789-3.838118-14.652556 2.84777-25.11938 10.212491-31.33982 21.131302-6.455566 11.331109-8.413007 26.539483-5.804194 44.566474 2.697712 18.639191 10.179356 39.700527 22.090997 61.735553 11.522811 21.314545 27.175689 43.512823 46.639594 65.282979 18.404594 20.589068 38.129381 38.43115 57.923126 53.113115 20.877982 15.48657 41.829076 27.448203 61.381881 35.399303 17.86123 7.263937 34.501136 11.167856 49.01162 11.469375 14.046879.291523 26.086468-2.791964 35.274641-9.472854 8.465349-6.152815 13.904807-14.973489 16.578425-25.68157 2.845601-11.396077 2.576411-24.930272-.498499-39.684702-3.054139-14.656977-8.834238-30.712435-17.448306-47.680779"/><path d="m729.853876 450.29776c-2.837857-4.157312-5.754902-8.334548-8.751944-12.532536-24.273696-33.997317-52.466415-66.805051-82.53784-96.525515-1.635485-1.616272-3.276626-3.222581-4.922615-4.82059-1.568417-1.493411-3.141682-2.977691-4.720604-4.45284-28.955514-27.061544-59.512574-50.995144-89.791667-70.255917-33.026449-21.008207-66.336521-37.039759-97.56022-46.32647-29.395091-8.742143-56.921979-11.498189-80.582369-6.784687-25.558489 5.091213-43.830829 18.279555-54.70551 37.841668-11.231837 20.203806-14.646638 47.25539-10.124814 79.272006 4.653536 32.953007 17.549139 70.166263 38.074311 109.074653 19.829444 37.590137 46.76646 76.735946 80.261575 115.127992 31.666507 36.301769 65.600392 67.756384 99.65225 93.639969 35.944302 27.321377 72.015468 48.424218 105.682697 62.455147 30.810787 12.839685 59.540048 19.740591 84.622598 20.275197 24.407832.520495 45.349955-4.988276 61.364615-16.921455 14.798551-11.023352 24.302786-26.804204 28.968443-45.952079 4.934736-20.251954 4.474958-44.269397-.845216-70.429416-5.268459-25.910149-15.230856-54.275005-30.072233-84.234548-9.378988-18.93121-20.701326-38.487512-34.011457-58.450579"/></g></g></svg>