<svg height="960" viewBox="0 0 960 960" width="960" xmlns="http://www.w3.org/2000/svg"><g fill="none" fill-rule="evenodd" stroke="#000" stroke-linejoin="round"><path d="m212.354048 134.66789c37.229082-8.651856 81.632377-8.130488 130.000336.933474 47.237066 8.852566 98.491121 25.978134 150.540724 50.516866 50.446614 23.781025 101.651913 54.529854 150.684613 91.459088 48.672385 36.658456 91.023186 76.030638 126.294909 116.094018 36.950818 41.96952 66.149492 84.713372 86.727934 125.912123 20.451201 40.942224 32.405843 80.570932 34.562982 116.433679 2.085789 34.691747-4.989722 65.865745-22.395481 91.327262-2.35335 3.451242-4.869616 6.758781-7.544041 9.924992-2.687505 3.179275-5.539115 6.21841-8.548883 9.118593l-.039242.029691c-.828846.764831-1.600611 1.475032-2.305784 2.119913l-2.306974 2.111599-.039242.039192c-1.807526 1.571229-3.663807 3.093766-5.567655 4.569985 2.838529-2.058156 5.562898-4.213698 8.162406-6.472563-139.161637 126.198341-294.434036 158.47802-426.821019 130.155512-10.811833-2.312696-21.499409-5.029758-32.046108-8.132938-18.260435 12.875672-47.17175 21.191624-79.713523 21.191624-55.228475 0-100-23.952766-100-53.5 0-19.894508 8.820452-37.218989 21.87178-50.679575-161.088169-129.528441-239.46637042-364.583417-121.917457-575.333332 1.699312-4.012989 3.596024-7.915528 5.692516-11.704056 2.834962-5.123419 6.061157-10.072257 9.685722-14.829887 19.778136-26.024452 49.070753-42.93031 85.021487-51.28526z" stroke-width="40"/><path d="m429.485845 882.740499c134.445633 28.918772 292.132554-4.040479 433.458188-132.895627-2.63993 2.30642-5.406664 4.507341-8.289333 6.608827 1.933453-1.507298 3.8186-3.061888 5.654233-4.666196l.039853-.040016 2.342847-2.156054c.716139-.658458 1.499906-1.38361 2.34164-2.164543l.039853-.030316c3.05657-2.961239 5.952523-6.064356 8.68182-9.310563 2.716012-3.232869 5.271407-6.61004 7.661353-10.133939 17.676422-25.997549 24.861959-57.827842 22.743735-93.249942-2.190683-36.617751-14.331222-77.080749-35.100445-118.884914-20.898441-42.066093-50.551161-85.709815-88.076574-128.562904-35.820206-40.90682-78.829573-81.10789-128.258824-118.538103-49.795171-37.706692-101.796725-69.102864-153.027795-93.384543-52.858987-25.055336-104.910055-42.541443-152.881669-51.580378-49.120092-9.254783-94.213868-9.787127-132.021872-.953126-36.509776 8.530843-66.257901 25.792614-86.343592 52.364949-3.680927 4.857791-6.957291 9.910815-9.836336 15.142095-2.129093 3.868286-4.0553 7.852985-5.781037 11.950457-138.9839939 250.530321-8.26518 534.698965 210.706527 643.314126 33.456828 16.594825 68.987197 29.221928 105.947428 37.17071z" stroke-width="40"/><path d="m542.911694 716.69022c53.369023 22.278542 104.887342 36.64683 151.63718 42.80449 45.794346 6.032298 87.181888 4.275981 121.462879-5.59539 32.8407-9.456806 59.14045-26.372064 76.494488-51.034977 17.237328-24.435771 24.237427-54.473139 22.158431-87.982181-2.179034-35.089107-14.308008-73.980051-35.069753-114.25743-21.00158-40.742835-50.827031-83.043392-88.590116-124.60791-36.120153-39.75607-79.491783-78.82699-129.338953-115.2082-50.234497-36.661724-102.674962-67.179442-154.321535-90.77367-53.222813-24.314132-105.592738-41.276556-153.820062-50.033318-49.113557-8.918119-94.119142-9.449359-131.760386-.973111-35.857233 8.074094-65.002937 24.325303-84.583464 49.291072-19.78445 25.169328-27.96192 56.830203-25.831623 92.479097 2.230336 37.324533 15.747017 78.998277 39.072559 122.191267 23.212677 42.985708 56.05466 87.287102 96.934316 130.179718 39.500926 41.447844 86.471361 81.545247 139.478708 117.834607h.01026c51.96336 35.653859 104.846301 64.304792 156.067071 85.685936z" stroke-linecap="round" stroke-width="20"/></g></svg>