<svg height="960" viewBox="0 0 960 960" width="960" xmlns="http://www.w3.org/2000/svg"><g fill="none" fill-rule="evenodd"><path d="m640.949698 45.8539513c13.944578-1.8205759 14.255129-.5020702 14.785312 1.8122865l.042565.1847422c.159597.684688.368148 1.4480972.961692 2.2382405 2.49559 3.322201-12.923617 50.4875455-46.25762 141.4960345l-55.287588 272.989355c-.101017.589682-43.337894 193.862062-70.041657 259.483626-48.706847 119.691726-88.800093 171.381938-103.353481 181.504625-5.647767 3.928334-11.219375 7.140615-16.739274 9.603018-10.799702 4.817701-21.197626-.357257-25.674801-9.675998-.535398-1.114371-.972115-10.121309-1.584805-19.290804l-.075921-1.123082c-.627513-9.169886-1.442209-18.186816-2.718743-19.320779-14.335768-12.734664-33.033338-40.721659-34.680984-48.592732-1.077536-5.147563.566844-10.479787 4.374909-14.186502 20.164449-19.627782 91.239883-113.618301 150.752917-286.154745 35.714329-103.540739 64.057467-238.774938 119.74184-393.657604 17.005443-47.2995964 47.407511-74.9141872 65.755639-77.3096817zm312.502603 188.1759487c-.267124.333959-.531828.664909-.794106.992841l-.779546.974729c-1.415793 1.770366-2.75796 3.449135-4.025305 5.034742l-.683852.855628c-1.465571 1.833802-2.826337 3.537088-4.080328 5.107275l-.571175.715241c-6.387238 7.99875-9.844695 12.344929-10.090323 12.668941l-4.488016 5.932885c-8.922632 11.820658-61.611389 84.52744-68.126195 93.957091-57.957792 83.889191-136.362846 259.799433-235.21516 527.730727l-3.598295-13.551759c4.376135-5.299706 7.634778-11.612059 9.361368-18.633899l.173131-.728915 113.930245-529.118779c65.477658-84.392705 142.210382-171.249382 208.987557-235.9354409 57.181609-55.3909722 23.74021 114.3186169 0 143.9986929zm-738.855624 1.269023c-20.045485 163.87737-30.41492 248.689853-31.108302 254.43745-6.534537 54.166146-10.722774 109.382732-11.122005 161.095049l-19.362873 37.076096c-.747233 1.158555-68.4577045 79.80626-86.2155776 95.944567-27.5328003 25.021734-52.0884368 45.653044-74.12965255 62.806912-67.32527305 52.396783-48.01134385-75.567022-1.1092954-131.175826 40.32588035-47.811856 71.96036425-92.397341 94.90345155-133.756454 49.627633-89.46289 92.342384-204.938822 128.144254-346.427794zm219.012538-158.298923c5.693292 22.5648068 25.818168 31.508471-12.386223 112.626878l-68.08754 119.261452.833544-2.523623 49.678928-156.492548z" fill="#000"/><g stroke="#000" stroke-linejoin="round" stroke-width="40"><path d="m283.361603 79.056068c-52.553111 165.128687-85.301941 301.081822-98.246492 407.859405-20.216704 166.764444-16.878418 344.023112 57.013003 384.122541 73.891421 40.09943 115.149694 30.67945 126.442035 18.210395 11.292342-12.469055-59.027544 8.775902-67.261462-83.557849-8.233918-92.333752-8.608246-245.035052 17.452325-378.074306 16.464884-84.053256 48.481548-191.426973 96.049992-322.121152h-.000001c4.728736-12.9921884-1.121167-27.4572299-13.551931-33.5098323-18.017329-8.7727291-34.319073-14.120514-48.905233-16.0433547-11.907092-1.5696688-25.098333-1.7176306-39.573724-.4438854-13.659486 1.2019507-25.260029 10.4915449-29.418512 23.5580384z"/><path d="m656.565117 65.815629c13.891536-.6917568 27.67331.0430617 41.345322 2.2044557 10.933723 1.7285008 21.902767 3.5640732 32.907134 5.5067174v-.0000008c21.157475 3.7350124 35.309448 23.8779465 31.650171 45.0486517-20.30425 117.470017-40.355671 226.733926-60.154261 327.791728-17.359906 88.610042-47.936089 228.315294-91.728548 419.115758h-.000001c-4.761308 20.744661-23.982484 34.884765-45.204007 33.254435-15.086951-1.159046-27.349577-3.117458-36.787877-5.875236-9.689412-2.83115-22.077148-7.886069-37.163208-15.164754v-.000001c-20.11655-9.705784-30.353935-32.459686-24.273871-53.951792 42.669396-150.829874 76.715016-284.998585 102.136859-402.506135 29.955238-138.462289 45.698603-268.583953 48.672761-290.070408 1.878185-13.568721 3.452261-24.994568 4.722229-34.2775437l.000002.0000002c2.347442-17.1588945 16.580005-30.2145223 33.877295-31.0758755z"/></g></g></svg>