<svg height="960" viewBox="0 0 960 960" width="960" xmlns="http://www.w3.org/2000/svg"><g fill="none" fill-rule="evenodd"><g stroke="#000" stroke-linejoin="round"><path d="m358.134363 719.188906-.430943-.36373c-18.296638-13.823234-19.552487-37.981252-19.552487-42.421588v-41.598535c0-47.49096-24.30114-92.714259-33.738032-109.455865-9.437981-16.740515-36.299257-80.064707-36.299257-80.064707-.725245-1.910643.012701-11.763634-1.42107-13.856413-28.613925-41.765802-45.37202-92.332147-45.37202-146.831125 0-143.41401 115.957472-259.6750424 259.000545-259.6750424 143.040894 0 258.999455 116.2610324 258.999455 259.6750424 0 55.496587-17.376807 106.915653-46.95479 149.115866-.921414 1.314622.886728 9.661029.161483 11.571672 0 0-26.861276 63.324192-36.299257 80.064707-9.436892 16.741606-33.738032 61.964905-33.738032 109.455865v41.598535c0 4.440336-1.165237 28.421642-19.461874 42.244876l-.521557.540442s-14.881845 20.605141-19.157017 30.400554c-4.275172 9.795412-5.181812 17.398478-6.435273 24.064763-1.253462 7.616758-2.171832 16.10002-3.091873 25.276659-.389966 6.751984-.891351 17.081942-1.504155 30.989875-.222837 15.17696-.222837 26.227996 0 33.153108l-36.015304 41.724665-23.482351 21.208155-.584954.346255c-4.261771 3.807946-8.522706 7.617623-30.834329 8.568961h-.335092c-21.977366-.951338-26.238301-4.761015-30.500908-8.568961l-.584948-.346255-23.481521-21.208155-36.015305-41.724665c.333421-10.387668.333421-21.466981 0-33.153108-.251528-10.128841-.920041-20.861899-1.50499-30.989875-.919205-9.176639-1.837575-17.659901-3.091037-25.276659-.692123-3.941023-.2058-6.046617-5.202465-20.644863s-22.550642-33.820454-22.550642-33.820454z" stroke-width="40"/><path d="m264.320554 435.931896c29.180402 5.776138 92.236208 13.988894 214.974265 13.990005 122.809669-.001111 185.867712-8.222752 215.025735-14" stroke-linecap="round" stroke-width="20"/><path d="m619.320554 704.921901c-1.2112.777027-2.487047 1.521852-3.833638 2.227201-21.141728 11.080953-130.512025 11.772799-130.512025 11.772799h-7.308673s-109.370297-.691846-130.512026-11.772799c-1.346591-.705349-2.622437-1.450174-3.833638-2.227201" stroke-linecap="round" stroke-width="20"/></g><path d="m387.372423 839.921901c-7.393106 36 24.185855 54 94.736883 54s100.617996-18 90.200905-54c-28.501639 5.728641-58.525578 8.592961-90.071817 8.592961s-63.168229-2.86432-94.865971-8.592961z" fill="#000"/><path d="m386.320554 751.921901c28.158241 5.333333 68.824908 8 122 8" stroke="#000" stroke-linecap="round" stroke-linejoin="round" stroke-width="20"/><path d="m386.320554 782.921901c28.158241 5.333333 68.824908 8 122 8" stroke="#000" stroke-linecap="round" stroke-linejoin="round" stroke-width="20"/><path d="m386.320554 814.921901c28.158241 5.333333 68.824908 8 122 8" stroke="#000" stroke-linecap="round" stroke-linejoin="round" stroke-width="20"/></g></svg>