<svg height="960" viewBox="0 0 960 960" width="960" xmlns="http://www.w3.org/2000/svg"><g fill="none" fill-rule="evenodd"><rect height="916" rx="139" stroke="#000" stroke-linejoin="round" stroke-width="40" width="916" x="22" y="22"/><circle cx="480" cy="480" r="330" stroke="#000" stroke-linecap="round" stroke-linejoin="round" stroke-width="20"/><path d="m479.5 419c120.882806 0 228.170884 23.134145 295.366541 58.87084l.093937 4.234259.039522 4.894901c0 163.476286-132.075999 296-295 296s-295-132.523714-295-296c0-3.233652.051677-6.455193.154249-9.663838 67.250123-35.433216 174.068505-58.336162 294.345751-58.336162z" fill="#000"/><path d="m479.5 391c135.150259 0 255.119925 26.631631 330.356635 67.786002l.099154 4.558403.044211 5.655595c0 188.881384-147.746033 342-330 342s-330-153.118616-330-342c0-3.60095.0537-7.188901.160314-10.76304 75.292778-40.842924 194.793653-67.23696 329.339686-67.23696z" stroke="#000" stroke-linecap="round" stroke-linejoin="round" stroke-width="20"/></g></svg>