<svg height="960" viewBox="0 0 960 960" width="960" xmlns="http://www.w3.org/2000/svg"><g fill="none" fill-rule="evenodd"><path d="m587.034935 120.63527-.128314 131.288657v.00976c-3.010438 16.836885-51.927589 31.253162-112.136349 32.600113-62.409836 1.395753-113.330655-11.771179-113.735337-29.408425v-129.717214c.256628 11.068421 51.049133 18.915874 113.468839 17.52012 61.876839-1.385992 111.929073-11.322194 112.531161-22.293011" fill="#000"/><g stroke="#000" stroke-linejoin="round"><path d="m578.034935 204.63527c-2.772243 15.445935-47.818913 28.671238-103.263765 29.906912-57.471771 1.280446-104.363573-10.798723-104.736235-26.9789" stroke-width="20"/><path d="m578.321749 198.63527c.0055.666667-.0145 1.333334-.0745 2" stroke-width="20"/><path d="m473.576362 24.7867177c29.961174-.6662509 57.130679.9237576 76.843555 3.9518957 11.470179 1.7619596 20.684085 4.0992011 27.018953 6.6323515 5.062639 2.0244193 8.844681 4.3814288 11.486775 6.6308034 6.845034 5.8275946 8.949066 12.3354435 9.087867 18.293183.012405.5366669.019204 1.23126.020907 1.9595411l.000067.9013456c-.002239 1.1500689-.012408 2.2275093-.015772 2.5579581l-.017964 13.6000636-.117605 119.6471763-.687311 661.156451c.203029 11.541773-3.625915 22.796188-11.433441 33.090009-6.577575 8.672194-16.181274 16.750947-28.387869 23.463985-20.856882 11.470279-49.807877 19.191451-82.067647 19.908816-32.260843.717275-61.53389-5.707384-82.894067-16.238541-12.496454-6.161098-22.456932-13.801373-29.42328-22.169723-8.332273-10.009173-12.674747-21.173224-12.942983-32.805411-.072946-3.370123.212468-6.67647.81791-9.937593v-789.9063503c-.070159-5.8833438 1.783594-12.3659054 8.249693-18.3976476 2.538152-2.3676532 6.211585-4.8943182 11.181848-7.1448104 6.212563-2.812995 15.311488-5.5586377 26.691999-7.8294023 19.553174-3.9014643 46.622983-6.6978616 76.588365-7.3641007z" stroke-width="40"/><path d="m582.034935 66.3094738c.300104 13.1922378-46.016136 24.9267549-103.454088 26.2111299-57.437043 1.284375-104.242879-8.3681971-104.545912-21.5595368-.300104-13.1913397 46.017044-24.9267549 103.454088-26.2111299 57.437043-1.284375 104.242879 8.3681971 104.545912 21.5595368z" stroke-width="20"/></g><path d="m554.034935 64.8219082c.151565 7.1084968-33.751086 13.6835665-75.723791 14.6847088-41.973622 1.0011423-76.122708-3.949487-76.276209-11.0589502-.151565-7.1084969 33.751086-13.6826002 75.723791-14.6837425 41.974538-1.0011423 76.123624 3.949487 76.276209 11.0579839" fill="#000"/></g></svg>