<svg height="960" viewBox="0 0 960 960" width="960" xmlns="http://www.w3.org/2000/svg"><g fill="none" fill-rule="evenodd"><path d="m560.416857 39.425514c16.626878-1.4982674 34.313762 1.718511 50.386371 7.7254945 37.315354 13.9447152 69.513735 41.7925181 94.082768 72.6313455 24.93194 31.294194 44.695175 69.079171 50.866079 108.782479 5.135108 33.047415-.781462 69.55557-26.145325 91.003993l-.745408.621942-110.120342 90.178232-.002011 1.260766c-.146612 79.214373-.299424 121.858397-.447579 127.932352l-.004534.174514-.179119 6.261984-.197942 6.422654c-1.003549 31.442741-2.69249 68.60215-5.460914 113.082648-4.003904 64.318889-21.947099 103.169601-44.152453 127.267123-27.820575 30.191229-63.475228 38.287319-93.521188 40.310268l-.00026 10.201691.236831.008207 3.82926.132954 3.779989.141806 3.714597.14994c.627168.026217 1.251999.0528 1.874458.079746l3.635732.162729 3.580433.171057c2.987807.147302 5.914215.303197 8.774969.467283l3.360633.198349c.572591.034763 1.14239.069862 1.70936.10529l3.267296.209887c1.650465.108966 3.275446.220792 4.874008.335387l3.104445.228527c.532458.040244 1.061792.080802 1.587964.121671l3.02424.241119 2.953983.248277c15.031048 1.296483 27.203038 2.888956 35.616506 4.619998 5.432492 1.117717 9.64352 2.390172 12.560422 3.605111 14.686155 6.11703 14.779634 15.110508 15.581872 19.410204l.017005 13.674236c.003302 4.945565-1.43333 10.283456-6.233185 15.325614-1.69265 1.778097-4.084167 3.729263-7.441111 5.467737-2.936821 1.520903-7.253529 3.139464-12.922583 4.543014-8.279481 2.049843-20.403639 3.950968-35.467598 5.495808-27.772195 2.848097-66.138361 4.627374-108.518015 4.627374-41.913979 0-79.901664-1.740077-107.595113-4.533507-14.980455-1.511075-27.11054-3.366911-35.51275-5.376116-5.549668-1.327082-9.846113-2.836366-12.840006-4.27718-12.914494-6.215113-13.944793-14.721826-14.61209-19.564158l-.022529-13.525512c-.004141-5.093105 1.425288-10.862732 7.328927-16.188717 1.690069-1.524701 4.091803-3.232524 7.442946-4.7228 2.857068-1.270558 7.070236-2.621099 12.580423-3.792138 8.269868-1.757533 20.382813-3.380618 35.421462-4.70115l2.946268-.252067 3.038525-.246545 3.086293-.237435c1.058472-.079306 2.129174-.157376 3.21182-.234179l3.199881-.220971c.556866-.037426 1.116697-.074525 1.679459-.111292l3.314508-.210649 3.37779-.202838c1.152012-.067233 2.314863-.133131 3.488271-.197666l3.497411-.186712 3.571472-.179298 3.627573-.170885 3.682214-.162349 3.721026-.153101c.63633-.025267 1.274966-.050161 1.915873-.074678l3.784066-.139424c1.287958-.04566 2.584574-.089813 3.889571-.132435l.380198-.012523.006-13.48-.213447-.040386c-7.85095-1.501608-12.719997-2.856793-14.728688-3.774748l-.110645-.051491c-7.995962-3.791662-10.125641-5.926551-13.094745-9.435704-7.328996-8.663119-8.666753-16.208293-8.550216-21.94845.153468-7.179343 3.009265-13.229756 8.685221-18.028866 2.997515-2.534446 7.207039-4.833006 12.606494-6.2396l2.31174-.58207c14.324712-1.073261 24.479613-1.991068 30.461507-2.781165 6.70613-.885756 16.578123-2.637792 29.620208-5.228715l2.22938-.357319c16.128751-2.591805 26.0078-15.310146 33.21101-29.954627 14.633354-29.750328 18.389239-69.858693 20.059054-94.067692 1.715069-28.746201 2.747721-50.292832 3.089405-64.640199.128955-5.414829.196278-11.941769.203744-19.580796l.000456-2.287184c-.003569-6.409839-.047093-13.548866-.130418-21.417082l-.01006-.885906-48.108533 39.401593c-26.968216 22.070248-59.095712 24.394246-90.654452 14.776947l-.956145-.295081c-37.822177-11.81872-74.229269-41.337668-95.152459-66.845632-20.979545-25.577868-42.264296-66.264255-47.075341-105.507993-4.081227-33.290608 3.36129-65.229208 28.507033-88.727311l1.637551-1.495043 294.278115-262.2065871c12.439422-11.0525224 27.455786-16.7032675 43.415088-18.1413789z" stroke="#000" stroke-linejoin="round" stroke-width="40"/><path d="m703.621818 120.051938c24.497866 30.482657 44.18132 67.200048 50.251867 105.918905 4.36361 27.838814 1.041379 59.707171-21.36077 77.943356-21.999482 17.907655-53.609273 15.247294-79.883501 5.44461-36.049306-13.450471-67.093513-39.630115-90.991545-69.103322-24.300698-29.969672-43.402832-66.130948-49.387291-104.303784-4.407116-28.116871-1.29131-60.3724907 20.501748-79.5584771 21.378357-18.8207487 52.634542-16.834884 79.01985-7.0597308 36.538061 13.5358157 67.831273 40.8322793 91.849642 70.7184429z" stroke="#000" stroke-linejoin="round" stroke-width="20"/><path d="m479.529882 520.710064c-30.41902 26.128911-58.748017 19.315878-87.594308 10.17582-38.34125-12.148091-71.237519-38.105031-96.110283-68.260048-25.149779-30.4911-44.269767-67.968188-48.952213-107.938376-3.554529-30.343695-1.700812-60.165579 26.206209-85.633135" stroke="#000" stroke-linejoin="round" stroke-width="20"/><path d="m679.547853 136.133283c17.463314 21.899451 31.683252 48.125066 36.493764 75.554513 3.458278 19.721444 1.648964 42.170578-13.604987 54.69971-14.978709 12.302792-36.941753 9.937412-55.315097 2.611618-25.208899-10.052656-47.14632-29.014658-64.175697-50.191146-17.318668-21.533824-31.126985-47.358991-35.86972-74.402085-3.492993-19.917937-1.831631-42.643156 12.984249-55.8529668 14.534027-12.9577689 36.24084-11.0732588 54.691053-3.7640457 25.551091 10.1198111 47.675311 29.8735895 64.796435 51.3444025" fill="#000"/><g stroke="#000" stroke-linejoin="round"><path d="m680.529882 357.386363c-27.767523 21.395108-57.69502 15.818809-86.06586 5.701566-38.788772-13.832561-72.251405-40.816305-98.009535-71.241107-26.176962-30.920178-46.745572-68.248924-53.17962-107.62845-4.754733-29.102851-6.503853-56.589562 22.105323-82.164047" stroke-width="20"/><path d="m753.860362 221.276874c-6.119378-39.835936-25.961168-77.612663-50.656097-108.974776-24.211574-30.7484109-55.756511-58.8314619-92.588486-72.7578001-26.598487-10.0581208-58.105166-12.1012798-79.655492 7.2624673l-318.78433 287.3905238c-53.559022 48.204014-15.726746 139.616498 20.588283 184.413043 35.523746 43.818397 116.405353 100.302681 171.902458 54.349541l327.661067-271.490895c22.582353-18.762318 25.931308-51.550111 21.532597-80.192104z" stroke-width="20"/><path d="m361.710985 781.957256c-15.378215 2.680977-3.337816 3.81049 10.681599 5.273939 17.671252 1.844843 41.917377 1.942349 69.675447 1.757692 37.335216-.247647 116.911612 3.688823 146.461851-41.821333" stroke-width="20"/><path d="m377.564373 827.054325s-.034491 43.108013-.034491 43.275555c0 1.045588 18.569641 1.724445 43.271678 1.724445 24.703186 0 44.728322-.84764 44.728322-1.892608v-40.841888" stroke-width="20"/></g></g></svg>