<svg height="960" viewBox="0 0 960 960" width="960" xmlns="http://www.w3.org/2000/svg"><g fill="none" fill-rule="evenodd" stroke="#000" stroke-linejoin="round"><path d="m542.877219 33c.667588 0 1.3382.0029693 2.010784.0218744 1.313598.021884 2.638363.064216 3.973852.1269542l2.218149.1145443 1.511715.2319585c22.912711 2.2479648 43.639178 13.0225581 58.654332 28.8085472 15.422062 16.2137873 24.754473 37.6172521 24.754473 60.2998994v716.790534c0 22.926423-9.534566 44.546936-25.252279 60.821201-15.424182 15.970339-36.734876 26.696418-60.205315 28.467079l-.754576.057916c-1.872682.139874-3.766117.224095-5.638746.259492h-2.318114c-28.258415-.333076-54.794558-14.102106-70.400067-24.479798l-1.299021-.871646-1.279028-.874442-1.218531-.848117-1.156857-.819068-1.093949-.787263-1.029738-.752658-.964129-.715186-.896989-.674751-.8387-.639258-1.110686-.859367-1.41984-1.120738-.973436-.777493c-26.654757-20.014854-32.020114-47.462621-32.960949-60.815004l-.065295-1.011445-.0525-1.028685-.036744-.968389-.022655-.896876-.011856-.852729v-.81256l.013439-1.019135.036769-1.145474.015119-693.742889c0-18.08742 12.70513-49.5147146 40.69998-72.3818293 18.999773-15.5196405 44.621134-27.055873 76.595214-27.1051997z" stroke-width="40"/><g stroke-width="20"><path d="m561.508366 923.284428.838811-.057991c38.458781-2.689564 69.292823-32.494735 69.292823-66.60521v-750.284454c0-34.1084744-30.834042-63.913646-69.292823-66.6032103l-.838811-.0579906c-38.94254-2.7235588-70.868366 23.3182225-70.868366 58.1965722v767.2137117c0 34.88035 31.925826 60.922131 70.868366 58.198572z"/><path d="m414.591456 609.278805c-56.725854-17.16672-93.923067-77.7063-85.152425-143.732931 6.759025-50.887702 39.03255-91.552243 80.604908-108.385874"/></g></g></svg>