<svg height="960" viewBox="0 0 960 960" width="960" xmlns="http://www.w3.org/2000/svg"><g fill="none" fill-rule="evenodd"><path d="m491.906718 40.5322312.048282 1.2857688.940164.0416128c50.217485 2.2431252 95.464553 6.4480526 135.744595 12.590284l1.699017.2606838c46.726078 7.2138401 86.884896 17.0878436 120.503062 29.5136505l3.519015 1.305109 2.880169 2.22076c11.506596 8.8511013 20.977632 18.4765249 28.486584 28.7982809 7.608703 10.460524 13.211094 21.676119 16.871007 33.618731.404547 1.320073.784459 2.646086 1.139562 3.979336-.113863 1.235342-.230431 2.486928-.349749 3.754764-4.353897 46.263331-8.267982 70.585231-9.641363 73.674932l-.296041.666554c-9.917524 22.388486-20.233599 42.521331-31.039712 60.505423-8.650256 14.396518-17.624073 27.43617-26.961937 39.178339l-.715373.89354 3.363604 6.774288-14.402604 6.213712-.714005.78999c-2.416039 2.654559-4.855937 5.229649-7.320328 7.726198l-.925296.932527-4.984371-3.725715-.79021.274765c-31.282858 10.684089-83.155537 12.233709-211.9715 12.285102l-4.274629.001162-39.889733.001719-.000928-.797748-5.177905-.001499c-127.371399-.055877-179.479227-1.541114-211.460415-11.876612l-.09468-.031889-5.177679 3.871585c-3.087537-3.096131-6.136815-6.314837-9.149037-9.657911l-.080284-.089674-.788765-.39884c-3.955734-2.032632-7.680772-4.289631-11.356216-6.795369l-1.001301-.689568 2.380282-4.802223-.716154-.896802c-9.045523-11.375333-17.749971-23.968251-26.149181-37.832186l-.811875-1.345641c-10.807961-17.98459-21.122755-38.117769-31.040463-60.506673l-.295097-.664429c-1.043594-2.348803-2.522062-6.820904-3.809825-11.544085l-.252214-.933875c-.071918-.268804-.143043-.537836-.213323-.806738l-.208255-.805959c-1.473589-5.768116-2.532851-11.310713-2.665189-13.069698-.26444-3.514852-1.230829-19.249639-2.895388-47.20464-.076401-1.283091-.151207-2.540445-.223803-3.77311.401232-1.30055.822932-2.596429 1.264668-3.88798 4.011868-11.729919 9.548912-22.729941 17.022726-33.005018 7.510281-10.323583 16.983061-19.9515131 28.498494-28.8080533l2.875699-2.2104703 3.502303-1.3018625c33.621076-12.4270198 73.782179-22.3018662 120.511478-29.5162037 40.704175-6.284084 86.518762-10.5762685 137.442944-12.8509837l.938455-.0425925.049138-1.2847543c5.9423.1404883 11.821485.3059623 17.637561.496387l1.444301.0473673 1.444646-.0473853c5.088952-.1666208 10.226199-.3141385 15.41174-.4425298z" stroke="#000" stroke-linejoin="round" stroke-width="40"/><g transform="translate(372 690)"><path d="m201 0c-.888846 2.75654217-6.893441 40.2404071-8.104403 48.4082145-1.210962 9.3323642-2.098194 19.7264055-2.98704 30.9700005-.565115 12.4092126-1.129424 25.559796-1.453154 37.970069-.215282 9.545548-.215282 24.499887 0 44.863016l-34.794169 46.880308-22.686163 25.985103-.565116.424247c-4.117271 4.665651-8.233734 9.333425-29.788859 10.499042h-.32373c-21.2322015-1.165617-25.3486652-5.833391-29.4667435-10.499042l-.5651156-.424247-22.6853557-25.985103-34.4720529-46.880308h-.3221159c.2147439-20.363129.2147439-35.317468 0-44.863016-.2429997-12.410273-.8888462-25.5608564-1.4539618-37.970069-.8880388-11.243595-1.77527036-21.6376363-2.9862324-30.9700005-1.13103856-8.1678074-7.13482615-45.65167233-8.3457882-48.4082145" stroke="#000" stroke-linejoin="round" stroke-width="40"/><path d="m8.04067917 156c-7.31445662 35.333333 23.92855773 53 93.72904283 53 69.800485 0 99.547593-17.666667 89.241322-53-28.198431 5.622555-57.902966 8.433833-89.113607 8.433833-31.2106403 0-62.4962264-2.811278-93.85675783-8.433833z" fill="#000"/><g stroke="#000" stroke-linejoin="round" stroke-width="20"><path d="m6 69c27.927436 5.3333333 68.2607693 8 121 8"/><path d="m6 101c27.927436 6 68.2607693 9 121 9"/><path d="m6 132c27.927436 5.333333 68.2607693 8 121 8"/></g></g><g stroke="#000" stroke-linejoin="round"><path d="m373.196734 696c-7.898509-74.038042-16.419918-124.696797-25.564226-151.976266-13.716461-40.919203-36.638724-101.221134-118.632508-190.023734 45.251812 14.384869 126.417768 21.746075 243.497869 22.083617 117.084825-.337584 198.250448-7.698789 243.502131-22.083617-81.993784 88.8026-104.916047 149.104531-118.632508 190.023734-9.144308 27.279469-17.665717 77.938224-25.564226 151.976266z" fill="#000" stroke-width="40"/><path d="m138.959705 202.592886h663.998562" stroke-linecap="round" stroke-width="20"/><path d="m138.959705 157.592886h663.998562" stroke-linecap="round" stroke-width="20"/><path d="m139 178 73.579205-.146734" stroke-width="40"/><path d="m738 178 73.579205-.146734" stroke-width="40"/></g></g></svg>