<svg height="960" viewBox="0 0 960 960" width="960" xmlns="http://www.w3.org/2000/svg"><g fill="none" fill-rule="evenodd" stroke="#000" stroke-linejoin="round"><path d="m473.774849 48c61.247083 0 113.00281 12.2099666 155.378038 36.072818 53.955163 30.383885 79.428515 55.950617 107.800274 106.461557l.531839.950625 1.472911.713051c50.957753 24.754695 92.946585 56.504712 122.663173 92.851485l.954339 1.174068c31.794573 39.343783 49.424577 84.043829 49.424577 131.477738 0 78.983339-49.173173 150.891383-131.375915 202.474322-78.512724 49.267422-187.002093 79.824336-306.624085 79.824336s-228.111361-30.556914-306.624085-79.824336c-82.202742-51.582939-131.375915-123.490983-131.375915-202.474322 0-47.556296 17.721143-92.365264 49.6716468-131.78301 29.9119172-36.902715 72.4526602-69.105738 124.1831112-94.114017l.041242-.020315.917352-1.636c27.918062-49.610555 53.157302-75.168246 105.758726-105.043255l1.824733-1.031927c42.375228-23.8628514 94.130956-36.072818 155.378038-36.072818z" stroke-width="40"/><g stroke-width="20"><path d="m474 269c149.48373 0 271 71.090197 271 159.5s-121.51627 159.5-271 159.5-271-71.090197-271-159.5c0-87.2245 118.279796-157.590687 265.00296-159.461795 1.993614-.025418 3.992773-.038205 5.99704-.038205z"/><path d="m474 701c252.053174 0 456-123.282009 456-274.5s-203.946826-274.5-456-274.5-456 123.282009-456 274.5 203.946826 274.5 456 274.5z"/><path d="m474 628c171.948364 0 311-83.631237 311-186s-139.051636-186-311-186-311 83.631237-311 186 139.051636 186 311 186z"/><path d="m319.920811 166.051492c10.669446-18.58679 23.442379-34.920123 38.318799-49" stroke-linecap="round"/><path d="m319.920811 166.051492c10.669446-18.58679 23.442379-34.920123 38.318799-49" stroke-linecap="round"/><path d="m395.96965 150.051492c8-18.662339 16-33.329006 24-44" stroke-linecap="round"/><path d="m474 150.051492v-45" stroke-linecap="round"/><path d="m590.602013 166.051492c10.669446-18.58679 23.442378-34.920123 38.318798-49" stroke-linecap="round" transform="matrix(-1 0 0 1 1219.522824 0)"/><path d="m528.871972 150.051492c8-18.662339 16-33.329006 24-44" stroke-linecap="round" transform="matrix(-1 0 0 1 1081.743944 0)"/></g></g></svg>