<svg height="960" viewBox="0 0 960 960" width="960" xmlns="http://www.w3.org/2000/svg"><g fill="none" fill-rule="evenodd" stroke="#000" stroke-linejoin="round"><path d="m333.116638 43.7467358c7.099404-.8693274 14.647438-1.1960508 22.612539-.9840512 7.770146.2059316 15.878631.9227473 24.278908 2.1332383 8.266535 1.1921774 16.915222 2.8780519 25.887331 5.0350007 8.930238 2.1464613 18.116997 4.7462436 27.505359 7.7715461 8.930548 2.8763126 18.042228 6.130707 27.292544 9.7392469 9.320355 3.6371373 18.815102 7.6423449 28.437705 11.9870095 9.697768 4.379762 19.495679 9.087836 29.346749 14.0971487 9.892213 5.030086 19.89855 10.3934162 29.974056 16.0594102 9.128056 5.135029 18.383312 10.574132 27.721532 16.290055 9.335847 5.713036 18.700398 11.670289 28.054485 17.845335 9.219404 6.086009 18.588983 12.498445 28.06841 19.208736 9.511167 6.733466 18.816276 13.539471 27.870901 20.388629 9.244764 6.992288 18.477324 14.203723 27.656387 21.608499 9.063326 7.310953 18.025708 14.773867 26.844636 22.358308 8.783719 7.554415 17.391877 15.198731 25.782903 22.902286 8.293733 7.613254 16.444345 15.351274 24.412461 23.184593 7.872284 7.739465 15.408139 15.398313 22.611065 22.967222 7.315059 7.688021 14.345179 15.34746 21.089506 22.963661 6.948379 7.846542 13.451378 15.477612 19.513021 22.883845 6.20046 7.573404 12.13773 15.151052 17.807927 22.71371 5.395706 7.19519 10.427803 14.225819 15.100409 21.083047 4.799975 7.045353 9.277947 13.981499 13.433712 20.795171 4.212556 6.907773 8.108672 13.719181 11.685761 20.417655 3.669823 6.870282 6.954916 13.521172 9.85875 19.936876 6.22486 13.752725 10.870119 26.911196 13.874011 39.241161 3.198101 13.129124 4.540979 25.388527 4.069796 36.544066-.52716 12.446475-3.287752 23.634693-8.138438 33.404675-.965598 1.944355-2.013808 3.833673-3.146068 5.681184-38.897625 82.705481-86.704444 145.359225-137.660912 194.472489-52.442217 50.547502-108.220065 86.70485-161.165579 115.486523-57.24964 31.121181-135.647897 46.612175-216.036318 36.799011-69.255415-8.453002-139.950822-35.596522-199.763529-87.171591-5.877527-5.068594-11.849231-10.413304-17.786588-15.928203-4.25797-3.651955-6.356683-5.744378-10.41849-9.828575-.626746-.630201-1.306943-1.314162-2.050651-2.05902l-.775175-.775304c-4.071379-4.007435-8.028154-8.018961-11.825838-11.99359-49.4602037-51.781971-76.1767454-103.695785-88.8209869-156.93673-12.4452739-52.402308-11.0835217-106.132936-3.6453968-162.622683 8.0246418-60.948847 30.9166012-124.725174 68.9874447-190.476846 36.843198-63.629713 162.635933-207.9743675 169.45194-212.5775592 10.912356-7.3696748 24.823328-12.5219594 42.003721-14.645185z" stroke-width="40"/><g stroke-width="20"><path d="m645.017534 315.99702c13.153393 12.730157 24.177391 25.058805 33.078025 36.695574 9.372157 12.251549 16.40781 23.759155 21.113997 34.183385 4.800692 10.633496 7.177411 20.298763 6.739065 28.327954-.42427 7.756844-3.463536 13.990756-9.463647 18.116993-6.428403 4.421612-15.703038 6.060693-27.110086 5.125506-11.514623-.9452-25.212933-4.515732-40.341899-10.496322-16.425907-6.493241-34.558951-15.838102-53.181615-27.626063-17.594159-11.135132-35.632697-24.459043-53.085097-39.62429-18.472862-16.050371-34.062293-32.208879-46.315871-47.552353-12.741187-15.95525-21.895177-31.052412-26.953247-44.255168-4.993725-13.035545-5.851314-23.890322-2.45916-31.805367 3.338868-7.789887 10.746512-12.705125 22.328496-14.03281 10.469027-1.201525 23.337898.697885 37.565038 5.046404 14.951014 4.5698 31.423169 11.851042 48.1899 21.079754 15.349145 8.448723 31.215055 18.726768 46.61849 30.1763 15.168176 11.273308 29.907055 23.697076 43.277611 36.640503"/><path d="m680.256026 290.713406c6.205739 6.030947 12.071395 11.997681 17.59998 17.88415 15.897565 16.644049 29.3022 32.599821 40.323254 47.66866 13.375544 18.288487 23.234903 35.265638 29.772697 50.581293 6.546824 15.340738 9.697846 29.211614 8.936424 40.686567-.733332 11.038508-5.077149 19.860687-13.486897 25.650837-8.995612 6.206528-21.937777 8.491084-37.860421 7.140617-16.151372-1.368526-35.38254-6.478427-56.673259-15.023689-23.403438-9.393067-49.43323-22.994051-76.390974-40.277213-25.387749-16.275831-51.603132-35.820473-77.227634-58.194473-27.779357-24.226126-51.537925-48.825486-70.475158-72.338252-19.578272-24.309401-34.017197-47.476022-42.429955-67.891544-8.406739-20.401476-10.520462-37.405716-6.071311-49.754559 4.352845-12.07895 14.944533-19.685106 32.025863-21.65161 15.549458-1.791927 34.848843 1.355483 56.248909 8.365668 22.59286 7.40148 47.555257 19.118232 72.930969 33.875039 21.603714 12.563552 43.868531 27.633394 65.48328 44.2343 20.076857 15.194254 39.546785 31.793153 57.294233 49.044209"/><path d="m184.664688 650.161185c17.021788-16.623593 45.131296-17.387245 73.501907-4.845578-5.625756 17.505406-3.223802 39.547804 21.082853 57.191878 20.483569 14.869732 37.902311 11.840513 48.091104 7.475392 18.950674 34.418054 20.130936 70.597781.003854 90.255475-26.52073 25.900696-79.960108 13.302389-119.359666-28.140873-39.399558-41.442286-49.840783-96.035598-23.320052-121.936294z"/><path d="m648.778895 528.865557c-9.502558-4.905332-19.224726-10.195682-29.128609-15.858442-9.818369-5.614269-19.680467-11.515603-29.542565-17.687517-10.373228-6.491952-20.869867-13.357285-31.4423-20.580479-10.388776-7.096149-20.793099-14.49876-31.167299-22.190376-10.196374-7.560691-20.422871-15.442391-30.636735-23.631523-10.008829-8.024263-19.971987-16.316196-29.848661-24.86319-10.484006-9.051299-20.610414-18.156908-30.356876-27.279974-9.885419-9.25399-19.344249-18.492464-28.35511-27.680507-9.074024-9.252051-17.748667-18.51477-26.00255-27.748395-8.328706-9.317999-16.146282-18.51671-23.430378-27.557341-5.429061-6.737317-10.603528-13.43875-15.520487-20.087813-2.646995 5.165244-3.724645 11.47972-3.231005 18.807655.518904 4.364175 1.541165 9.053239 3.059009 14.037127 1.525617 5.010073 3.561394 10.330487 6.09664 15.929239 2.091165 4.615357 4.486482 9.342244 7.173318 14.154474 2.696554 4.830657 5.721552 9.810666 9.059448 14.91869 3.308744 5.060503 6.924555 10.235445 10.834801 15.50058 3.908302 5.265135 8.072169 10.571972 12.477026 15.896265 4.48551 5.422245 9.269342 10.919166 14.338862 16.467487 5.022878 5.497891 10.277027 10.993842 15.746901 16.462639 5.432948 5.431943 11.111744 10.873584 17.022783 16.303588 5.828443 5.353388 11.86192 10.677681 18.087801 15.948635 5.865368 4.979039 11.762804 9.7903 17.669956 14.428933 6.027648 4.732705 12.044606 9.269508 18.026582 13.601679 6.085951 4.406847 12.171902 8.628459 18.230645 12.654168 6.167576 4.098445 12.271991 7.970923 18.287977 11.611615 5.719609 3.460306 11.422698 6.748954 17.085946 9.855277 5.712807 3.131538 11.305118 6.037109 16.754586 8.705074 5.553442 2.718397 10.97473 5.206946 16.241512 7.454981 5.261923 2.246096 10.447079 4.28562 15.531176 6.108876 4.702206 1.686511 9.203264 3.151904 13.48957 4.39133 4.337807 1.254942 8.546374 2.312042 12.609181 3.165481 4.039486.84956 7.912805 1.492548 11.606355 1.926056 3.643991.427689 7.147081.651717 10.49761.670151 3.387454.015509 6.570845-.176514 9.534624-.581898 2.921995-.400534 5.660333-1.012488 8.200438-1.839742 2.461395-.803008 4.725528-1.811617 6.776852-3.027768.152562-.091162.295406-.190084.444081-.283186-5.339662-2.582622-10.74443-5.274833-16.221105-8.101849z"/><path d="m343.347325 274c4.916959 6.649063 10.091426 13.350496 15.520487 20.087813 7.284096 9.040631 15.101672 18.239342 23.430378 27.557341 8.253883 9.233625 16.928526 18.496344 26.00255 27.748395 9.010861 9.188043 18.469691 18.426517 28.35511 27.680507 9.746462 9.123066 19.87287 18.228675 30.356876 27.279974 9.876674 8.546994 19.839832 16.838927 29.848661 24.86319 10.213864 8.189132 20.440361 16.070832 30.636735 23.631523 10.3742 7.691616 20.778523 15.094227 31.167299 22.190376 10.572433 7.223194 21.069072 14.088527 31.4423 20.580479 9.862098 6.171914 19.724196 12.073248 29.542565 17.687517 9.903883 5.66276 19.626051 10.95311 29.128609 15.858442 5.476675 2.827016 10.881443 5.519227 16.221105 8.101849-.148675.093102-.291519.192024-.444081.283186-2.051324 1.216151-4.315457 2.22476-6.776852 3.027768-2.540105.827254-5.278443 1.439208-8.200438 1.839742-2.963779.405384-6.14717.597407-9.534624.581898-3.350529-.018434-6.853619-.242462-10.49761-.670151-3.69355-.433508-7.566869-1.076496-11.606355-1.926056-4.062807-.853439-8.271374-1.910539-12.609181-3.165481-4.286306-1.239426-8.787364-2.704819-13.48957-4.39133-1.581257-.56707-3.17229-1.15506-4.772369-1.763678l4.93108 4.200389s-94.669225-8.484792-255.066813 169.470647c0 0-3.475321 3.03238-9.540184 5.623887l-.052451-.09535c18.950674 34.418054 20.130936 70.597781.003854 90.255475-26.52073 25.900696-79.960108 13.302389-119.359666-28.140873-39.399558-41.442286-49.840783-96.035598-23.320052-121.936294 16.94678-16.55034 44.883778-17.380207 73.126871-5.0106 1.972457-5.785094 4.830919-11.050436 8.05018-15.461794 122.146543-167.39264 84.340967-286.848443 84.02943-300.988791l4.223984 3.600325c-1.753268-3.323905-3.362432-6.602315-4.823184-9.826304-2.535246-5.598752-4.571023-10.919166-6.09664-15.929239-1.517844-4.983888-2.540105-9.672952-3.059009-14.037127-.49364-7.327935.58401-13.642411 3.231005-18.807655z"/><path d="m893.880309 527.826492c-2.858534 60.383756-75.638761 54.048411-117.5869 43.593407-54.249589-13.52158-105.504928-39.077789-153.359926-67.352003-97.993854-57.896374-189.057672-133.06225-261.549502-220.647129-34.837853-42.091711-71.587404-91.824589-82.611209-146.354258-4.808402-23.78703-.617087-48.8840937 22.301019-61.6116498 23.234071-12.9034209 53.610236-9.9400466 78.679664-5.2759438 57.98074 10.7856719 113.184588 37.8130366 163.832383 66.9760526 51.263821 29.518958 99.689253 64.013731 145.157545 101.714088 46.442696 38.507017 90.460515 80.713514 128.134636 127.82527 34.462511 43.094246 79.754796 102.954619 77.00229 161.132166z"/></g></g></svg>