<svg height="960" viewBox="0 0 960 960" width="960" xmlns="http://www.w3.org/2000/svg"><g fill="none" fill-rule="evenodd" stroke="#000" stroke-linejoin="round"><path d="m429.839829 85.1836902c12.346593-2.4473952 26.710822-1.0163716 42.049927 3.5228182 16.293319 4.8219463 33.675361 13.1460216 50.909401 24.0541286 15.800399 10.000786 31.745849 22.427847 46.855572 36.479034.823921.765943 1.644891 1.536626 2.463331 2.312052.858919.829735 1.715308 1.66378 2.568745 2.502998 15.692034 15.43178 30.40371 32.466565 43.070342 50.119017 1.563932 2.179725 3.086121 4.348674 4.566986 6.507279 6.945565 10.365438 12.853848 20.519672 17.748042 30.349339 7.744608 15.555917 12.94324 30.283822 15.692455 43.737169 2.776202 13.583087 3.016126 26.053682.441055 36.56912-2.434658 9.942166-7.394209 18.136069-15.116469 23.859733-2.431085 1.802494-5.079773 3.32269-7.927284 4.565639l.526689.35228c28.887601 19.337553 57.785614 42.306148 85.355557 67.818563 31.412445 29.067917 61.09121 61.426739 87.057274 95.466259 25.534113 33.47363 46.018561 66.21885 61.628867 97.416521 16.403741 32.785687 27.421782 63.860651 33.257703 92.277828 5.931838 28.884509 6.43165 55.456508.901097 77.928909-5.300222 21.537085-16.130345 39.312016-33.013018 51.763541-5.094686 3.758889-10.621324 6.949931-16.544027 9.582916-112.648394 56.570709-223.600705 40.166831-315.295969-14.279219l-4.998486 8.571849c-153.676081 31.189665-296.996733-12.191976-278.702991-34.168101l.60398-.659292 129.401581-124.840445c-40.219352-62.522513-65.385661-132.074804-69.581198-196.883086-5.893759 1.399036-12.317059 2.014078-19.180182 1.868612-15.626827-.331045-33.525612-4.604298-52.721222-12.555027-20.975218-8.688382-43.448126-21.755911-65.841997-38.674148-21.214848-16.027912-42.356197-35.505578-62.084934-57.98475-20.8679882-23.773537-37.6501763-48.013826-50.0042349-71.290795-12.7875078-24.093273-20.8216733-47.136866-23.7209-67.542382-2.8171684-19.825674-.6896928-36.576846 6.3079199-49.087665 6.7750986-12.113462 18.1590565-20.280089 34.082401-23.432725 14.7407982-2.918745 31.890487-1.212117 50.204095 4.201287 19.45286 5.750617 40.205564 15.677848 60.781565 28.686775 18.864356 11.926864 37.90189 26.747285 55.941634 43.504626.983694.913458 1.963863 1.83257 2.941011 2.757336 1.025478.989536 2.047935 1.984212 3.066868 2.985057 18.734975 18.403826 36.299486 38.719385 51.422384 59.771569 1.867205 2.599524 3.684571 5.186196 5.4526 7.760532 8.292423 12.361745 15.346419 24.471609 21.189678 36.194397 1.730653 3.472357 3.354817 6.91012 4.87325 10.309797 8.936632-17.335939 20.574827-33.291008 35.11675-47.451779l-.045022.051563c12.399375-13.499105 29.373397-22.765462 50.871171-27.006043 16.694567-3.293013 35.075517-3.304157 54.587287-.444334-6.542173-6.399623-12.975439-13.182432-19.238723-20.326818-17.478601-19.934332-31.53502-40.26004-41.882528-59.777996-10.710556-20.202433-17.439809-39.524701-19.868142-56.634916-2.359603-16.624012-.577673-30.670027 5.283385-41.160465 5.674685-10.1572503 15.209656-17.0050433 28.546724-19.6485578z" stroke-width="40"/><g stroke-width="20"><path d="m796.709361 512.277005c24.473408 32.352236 44.106918 64.000462 59.068761 94.152986 15.722318 31.687338 26.282663 61.721265 31.876156 89.186443 5.685425 27.916854 6.164474 53.598669.863664 75.318225-5.080047 20.815575-15.460279 37.995031-31.641634 50.02942-4.883049 3.632963-10.180107 6.717102-15.856777 9.26188l.002502-.001262c-331.866613 168.057516-648.351746-330.21675-460.778364-514.40591l-.043152.049835c11.884296-13.046874 28.153206-22.0028 48.757948-26.101318 25.36584-5.045397 54.793591-2.119597 86.161929 7.195274 33.092541 9.826475 68.365817 26.771893 103.314516 48.967728 31.990602 20.317847 64.263881 45.553033 94.833595 74.07864 30.107551 28.094117 58.55344 59.368891 83.440856 92.268059"/><path d="m438.662327 302.720025c25.612303-5.128967 55.74525-1.850685 87.958177 8.034803 32.198907 9.881642 66.491814 26.412158 100.496684 47.813942 31.699305 19.950468 63.676449 44.683099 93.892876 72.479905 30.137407 27.724368 58.704634 58.607144 83.5242 90.893798 13.592517 17.681184 25.636519 35.097618 36.199555 52.125581 8.108354 13.370186 15.325197 26.510237 21.681116 39.360539 7.304783 14.768295 13.433842 29.139145 18.417128 43.003572 5.105637 14.202897 9.018345 27.897449 11.770622 40.964422 5.597594 26.575624 6.200431 50.969785 1.297439 71.552319-4.656377 19.545972-14.287756 35.660452-29.3332 46.935716h-.005098c-8.071393 6.069373-17.409637 10.50858-27.8089 13.385571-10.687937 2.95712-22.505079 4.271895-35.227114 4.018684-12.604781-.251288-26.132298-2.074408-40.399662-5.410384-14.340647-3.352642-29.418591-8.233526-45.047117-14.582393-16.901113-6.865545-34.454769-15.472799-52.344891-25.713423-17.592528-10.070749-35.521523-21.729997-53.484929-34.873254-18.515901-13.547754-37.09489-28.697468-55.393489-45.343371-17.618018-16.026658-34.994518-33.45399-51.825533-52.189685-17.834683-19.792772-34.018253-39.859268-48.455762-59.888584-14.78927-20.517789-27.726695-40.976602-38.71159-61.043098-10.886121-19.887005-19.879614-39.377847-26.866409-58.135979-6.998904-18.789543-11.993023-36.861762-14.868289-53.878187-3.508692-20.764589-3.840062-39.591954-.999206-56.006441 7.531643-33.558479 29.384816-56.222472 65.533392-63.504053"/><path d="m740.753719 589.623825c-5.971749-12.124608-13.809819-24.851302-23.581168-37.863457-9.946279-13.245261-21.317936-25.839197-33.356136-37.154792-12.221576-11.488243-25.113917-21.645166-37.885014-29.815705-13.922619-8.907252-27.961053-15.704088-41.115186-19.638213-12.345836-3.69354-23.897249-4.859691-33.814574-2.872061-10.638157 2.130985-18.237357 7.642-22.753568 15.812539-4.686917 8.479061-6.108073 19.859477-4.214003 33.349062 1.958613 13.947694 7.390491 29.707878 16.038668 46.196672 8.365877 15.94966 19.730295 32.560617 33.861624 48.851209 13.362239 15.406786 27.682975 28.758003 42.053776 39.744508 15.157987 11.58859 30.369056 20.539472 44.564927 26.489275 12.967743 5.435599 25.048771 8.356898 35.583779 8.582525 10.19842.218147 18.939491-2.089225 25.610356-7.08853 6.146076-4.604148 10.095271-11.204652 12.036391-19.217502 2.065984-8.527676 1.870545-18.655305-.361924-29.696035-2.217389-10.967806-6.413899-22.982095-12.667948-35.679495"/><path d="m777.030934 557.895629c-2.083347-3.093999-4.224829-6.202826-6.425039-9.327099-17.819975-25.301848-38.517011-49.718374-60.593255-71.837258-1.200654-1.202879-2.40546-2.398344-3.613825-3.587631-1.151417-1.111443-2.306393-2.216089-3.465522-3.31394-21.257024-20.140035-43.689787-37.952156-65.918486-52.286616-24.245607-15.634954-48.699431-27.566128-71.62159-34.477584-21.579729-6.506172-41.787961-8.557306-59.157692-5.049373-18.763176 3.789038-32.177394 13.604208-40.160791 28.162934-8.245594 15.036294-10.752492 35.168915-7.432899 58.996665 3.416286 24.524642 12.883297 52.219893 27.951379 81.176714 14.55733 27.975736 34.33252 57.109252 58.922188 85.681794 23.247238 27.016893 48.159018 50.426386 73.157406 69.689746 26.387682 20.333409 52.868498 36.038793 77.584519 46.481042 22.61903 9.555689 43.709956 14.691555 62.123733 15.089426 17.918448.387367 33.292626-3.712429 45.04942-12.593468 10.864016-8.203918 17.841331-19.948513 21.266515-34.198951 3.622723-15.072128 3.285188-32.946648-.620495-52.415739-3.867718-19.28313-11.181382-40.393128-22.076838-62.689942-6.885368-14.089189-15.197402-28.643591-24.968728-43.50072"/></g></g></svg>