<svg height="960" viewBox="0 0 960 960" width="960" xmlns="http://www.w3.org/2000/svg"><g fill="none" fill-rule="evenodd"><path d="m620.819798 162.63527-.166354 171.315686v.012736c-3.902913 21.970081-67.322051 40.781565-145.380312 42.539171-80.911866 1.821288-146.92868-15.359952-147.453334-38.374408v-169.265144c.332707 14.44294 66.183168 24.682908 147.107831 22.86162 80.220858-1.808552 145.111586-14.774083 145.892169-29.089661" fill="#000"/><g stroke="#000"><path d="m608.819798 270.63527c-3.585256 20.59458-61.842729 38.228317-133.54785 39.875883-74.326473 1.707261-134.970198-14.398298-135.45215-35.971867" stroke-width="1.163"/><path d="m608.967053 262.63527c.022.666667-.058 1.333334-.298 2" stroke-width="1.163"/><path d="m609.775271 96.8633279.023573-13.1327079s.047146-3.1382055 0-4.6390864c-.306448-9.6789763-60.971386-16.5352731-135.497208-15.3158073-74.537608 1.2194657-134.707515 10.0541964-134.401066 19.7331727v17.52449 113.333563 628.570626c-.754334 2.328071-1.143288 4.69878-1.072569 7.103601.895772 28.584106 62.032168 50.765591 136.569777 49.546125 74.525821-1.219466 134.224269-25.378532 133.328498-53.954963l.895771-634.053957v-.008528z" stroke-linejoin="round" stroke-width="40"/><path d="m612.819798 86.3403919c.388116 18.6890031-59.511253 35.3129031-133.793989 37.1324341-74.281561 1.819531-134.814108-11.854946-135.206011-30.5426772-.388116-18.6877312 59.512428-35.3129028 133.793989-37.1324341 74.28156-1.8195312 134.814108 11.854946 135.206011 30.5426772z" stroke-linejoin="round" stroke-width="20"/></g><path d="m575.819798 86.6942059c.194442 9.5691304-43.299091 18.4201861-97.145654 19.7678771-53.847737 1.347692-97.657421-5.316617-97.854346-14.8870482-.194443-9.5691304 43.299091-18.4188849 97.145653-19.7665764 53.848913-1.3476916 97.658597 5.3166171 97.854347 14.8857475" fill="#000"/></g></svg>