<svg height="960" viewBox="0 0 960 960" width="960" xmlns="http://www.w3.org/2000/svg"><g fill="none" fill-rule="evenodd" stroke="#000" stroke-linejoin="round" transform="translate(0 1)"><path d="m352.999993 25h55.000002l.000005 734.275.087083.013922c4.010444.628927 7.664711 1.460206 10.837123 2.431027l.55481.172757c5.524578 1.750358 9.873534 4.04943 12.955413 6.364243 7.970597 5.986748 10.399631 13.169912 10.561271 19.543613l.004324 112.653593c-.309591 6.451126-2.943081 13.239602-9.535739 19.054819-3.182234 2.806969-7.587261 5.526929-13.147053 7.643441-7.601509 2.893756-17.9094 4.847585-29.317232 4.847585-11.411098 0-21.721616-1.955171-29.320956-4.849993-5.564419-2.119657-9.970219-4.84444-13.150315-7.655251-6.581962-5.817638-9.206702-12.604139-9.507045-19.058147l-.02175-112.467857c.184497-7.048945 3.028646-15.28393 13.389892-21.592068.199277-.121324.402768-.242257.610427-.362724z" stroke-width="40"/><g stroke-linecap="round" stroke-width="20"><path d="m363 35h35v737.813923c-1.477406 3.716033-6.051485 9.186077-17.5 9.186077s-16.022594-5.470044-17.5-9.186077z"/><path d="m344.184441 793.373252c0 7.179701 19.699471 13 44 13s44-5.820299 44-13"/></g></g></svg>