<svg height="960" viewBox="0 0 961 960" width="961" xmlns="http://www.w3.org/2000/svg"><g fill="none" fill-rule="evenodd"><rect height="898" rx="163" stroke="#000" stroke-linejoin="round" stroke-width="60" width="898" x="31" y="31"/><g transform="translate(135 135)"><path d="m456 342.500937c0-26.234827 20.818403-47.500937 46.499082-47.500937 25.682515 0 46.500918 21.26611 46.500918 47.500937 0 26.232953-20.818403 47.499063-46.500918 47.499063-25.680679 0-46.499082-21.26611-46.499082-47.499063z" fill="#000" fill-rule="nonzero"/><path d="m142 342.500937c0-26.234827 20.817992-47.500937 46.5-47.500937s46.5 21.26611 46.5 47.500937c0 26.232953-20.817992 47.499063-46.5 47.499063s-46.5-21.26611-46.5-47.499063z" fill="#000" fill-rule="nonzero"/><g stroke="#000"><ellipse cx="345.5" cy="345" rx="345.5" ry="345" stroke-width="30"/><g fill="#000" stroke-linejoin="round" stroke-width="10"><path d="m78 140v161.179l-53.4545455.000245v83.433963l53.4545455-.000208v157.387c-22.1909805-34.964143-37.0634464-63.435624-44.6173978-85.414443-7.5539513-21.978819-13.6814854-59.266598-18.3826022-111.863335 6.4936036-54.661925 13.7132769-93.988474 21.6590199-117.979649 7.945743-23.991174 21.7260697-52.905365 41.3409801-86.742573z"/><path d="m676 140v161.179l-53.454545.000245v83.433963l53.454545-.000208v157.387c-22.19098-34.964143-37.063446-63.435624-44.617398-85.414443-7.553951-21.978819-13.681485-59.266598-18.382602-111.863335 6.493604-54.661925 13.713277-93.988474 21.65902-117.979649 7.945743-23.991174 21.72607-52.905365 41.34098-86.742573z" transform="matrix(-1 0 0 1 1289 0)"/></g></g></g></g></svg>