<svg height="960" viewBox="0 0 960 960" width="960" xmlns="http://www.w3.org/2000/svg"><path d="m305.449178 3.09526489.593448.1101371 172.099777 13.23965441c34.557405 2.6586796 61.320656 31.2134593 61.852465 65.7540913l.008067 1.0484975v794.6336738c0 36.598932-29.368955 66.425795-65.963508 66.991982l-174.517309 2.708129h-1.036492c-2.724109 0-5.436522-.164681-8.124387-.491643l-.555613-.072385-90.722586-5.974278c-34.865549-2.295985-62.049037-30.979042-62.58922-65.798212l-.008194-1.056984v-790.7548823c0-33.3211089 24.486584-61.5784522 57.468811-66.318598l98.840927-14.20523856c4.336513-.62323587 8.591449-.52918995 12.653814.18605575zm-33.883999 64.65473391c-.053016.6891036-.079553 1.3799888-.079553 2.0711289v810.7603023c0 13.395375 9.754877 24.512377 22.548385 26.634759l.675535.103282.436107.057412c.299669.036971.60086.069032.903487.096099l.45501.036846.632536.038491.762334.033111h.229769.774527l174.51731-2.703342c14.747059-.228165 26.582309-12.247946 26.582309-26.996769v-794.6336738c0-14.1083556-10.862085-25.8382157-24.928871-26.9204462l-174.51731-13.4265176-.733767-.046608c-.43735-.0219167-.873253-.0342578-1.307104-.0342578-13.997123-.0305027-25.85952 10.7470237-26.950704 24.9301832zm-14.991605-19.2252284-56.928875 8.1828701c-13.291345 1.9102081-23.159073 13.2974957-23.159073 26.7254052v790.7548823c0 14.222958 11.033605 26.007053 25.225823 26.941647l56.518169 3.723454c-4.280674-7.084552-6.743992-15.390406-6.743992-24.271599v-810.7603023c0-1.2030957.046194-2.4057477.138482-3.6052985.471523-6.1288402 2.09847-11.8923596 4.650865-17.0934413zm130.926426 488.9752296c50.322212 0 90.699482 44.530361 90.699482 99s-40.37727 99-90.699482 99-90.699482-44.530361-90.699482-99 40.37727-99 90.699482-99zm0 20c-38.815975 0-70.699482 35.162954-70.699482 79s31.883507 79 70.699482 79 70.699482-35.162954 70.699482-79-31.883507-79-70.699482-79zm297.442837-288.233307 74.479698 2.098823c.264408.007451.528736.017525.792944.030219 35.71183 1.715868 63.784521 31.169769 63.784521 66.922797v267.68513c0 36.383013-29.014724 66.043276-65.252344 66.977382l-.42403.006781-73.638992 2.76221c-6.252439.23429-12.513049.049151-18.73973-.553971l-1.333755-.135638-48.783149-5.197024-.400393-.023881c-34.657937-2.35227-61.867379-30.912399-62.419065-65.764521l-.008542-1.079885v-258.574244c0-34.261246 25.816286-62.878655 59.651609-66.59632l.349391-.035149 47.388102-7.052891c8.125602-1.209389 16.341885-1.701226 24.553735-1.469818zm-29.349063 66.742574-.005035.301024-.001679 270.570493c0 14.762571 11.847755 26.757951 26.553506 26.996383l.567839.003617 58.077221-.261959 16.47525-.616423c8.570149-.082809 16.176023-4.151789 21.063555-10.435843 3.307849-4.481775 5.262629-10.022629 5.262629-16.018352v-268.286285c0-13.512216-9.937282-24.746034-22.964305-26.699475-.765054-.104012-1.541424-.17506-2.326965-.212803l-9.570164-.270819-65.536481-1.460759c-14.90798-.332522-27.262848 11.483221-27.595371 26.391201zm-14.224775-22.002869-23.49151 3.498029c-14.044942 1.107522-24.877489 12.827902-24.877489 26.916444v258.574244c0 14.532281 11.502266 26.457654 26.025069 26.982393l24.187622 2.57755c-4.822354-7.380552-7.625631-16.200043-7.625631-25.674274v-270.269432c0-.34939.003896-.69877.011688-1.048074.169091-7.580874 2.124078-14.702404 5.45405-20.971648z"/></svg>