<svg height="960" viewBox="0 0 960 960" width="960" xmlns="http://www.w3.org/2000/svg"><g fill="none" fill-rule="evenodd" stroke="#000" stroke-linecap="round" stroke-linejoin="round"><path d="m480 23c252.394131 0 457 204.605869 457 457s-204.605869 457-457 457-457-204.605869-457-457 204.605869-457 457-457z" stroke-width="40"/><g stroke-width="20"><path d="m480 84.983908c-218.161364 0-395.016092 176.854728-395.016092 395.016092s176.854728 395.016092 395.016092 395.016092 395.016092-176.854728 395.016092-395.016092-176.854728-395.016092-395.016092-395.016092z"/><path d="m480 605.018391c-51.059043 0-92.450575 41.626711-92.450575 92.975862s41.391532 92.975862 92.450575 92.975862 92.450575-41.626711 92.450575-92.975862-41.391532-92.975862-92.450575-92.975862z"/><path d="m280.390805 394.903448c-51.059043 0-92.450575 41.626712-92.450575 92.975862 0 51.349151 41.391532 92.975862 92.450575 92.975862 51.059042 0 92.450574-41.626711 92.450574-92.975862 0-51.34915-41.391532-92.975862-92.450574-92.975862z"/><path d="m677.508046 394.903448c-51.059043 0-92.450575 41.626712-92.450575 92.975862 0 51.349151 41.391532 92.975862 92.450575 92.975862s92.450575-41.626711 92.450575-92.975862c0-51.34915-41.391532-92.975862-92.450575-92.975862z"/></g></g></svg>