<?xml version="1.0" encoding="UTF-8"?>
<svg width="960px" height="960px" viewBox="0 0 960 960" version="1.1" xmlns="http://www.w3.org/2000/svg" xmlns:xlink="http://www.w3.org/1999/xlink">
    <!-- Generator: Sketch 60.1 (88133) - https://sketch.com -->
    <title>pair_play_sync_box</title>
    <desc>Created with Sketch.</desc>
    <style type="text/css">
    	#pair {
    		animation: pair 3s infinite;
    	}

    	@keyframes pair {
    		0%, 20%, 80%, 100% {
    			fill: rgba(255,255,255,0);
    		}
    		50% {
    			fill: #0074CC;
    		}
    	}
    </style>
    <g id="pair_play_sync_box" stroke="none" stroke-width="1" fill="none" fill-rule="evenodd">
        <path d="M953.949754,559.243514 L953.857106,445.892679 C953.675212,443.346949 953.542277,443.167138 951.882137,442.224474 L951.66895,442.104886 C949.32991,440.8095 910.150657,423.069869 836.674043,390.054856 C814.112024,380.198072 780.7051,375.151896 736.566463,375.05 L224.445194,375.049986 C180.2949,375.151896 146.887976,380.198072 124.373996,390.03357 C50.8493425,423.069869 11.6700896,440.8095 9.35386872,442.092172 L9.14182243,442.210957 C7.45823727,443.166848 7.32479853,443.346943 7.14289427,445.892682 L7.05024557,559.243514 C9.15678563,576.069347 27.4344252,584.95 64.0102177,584.95 L896.989782,584.95 C933.565575,584.95 951.843214,576.069347 953.949754,559.243514 Z" id="Combined-Shape" stroke="#000000" stroke-width="10.0999999"></path>
        <path d="M18.1791599,438 C4.45452753,443.421911 4.16246738,451.357379 12.9807361,454.850329 C22.8729989,458.768693 44.1395218,457.923154 68.9925767,457.923154 C203.798576,457.923154 341.467718,457.923154 482,457.923154" id="Rectangle" stroke="#000000" stroke-width="10.0999999"></path>
        <path d="M491.576686,436.895593 C477.999191,442.673568 477.999191,450.423092 483.269934,453.900463 C489.136945,457.771222 514.415874,456.924377 539.258684,456.924377 C674.009109,456.924377 811.621495,456.924377 952.095843,456.924377" id="Rectangle" stroke="#000000" stroke-width="10.0999999" transform="translate(716.047922, 446.949213) scale(-1, 1) translate(-716.047922, -446.949213) "></path>
        <circle id="Oval" fill="#000000" cx="676" cy="525" r="4"></circle>
        <rect id="Rectangle" stroke="#000000" stroke-width="5.15099986" x="744.4245" y="502.4245" width="83.1509999" height="45.1509999" rx="22.5754999"></rect>
        <rect id="pair" x="747" y="505" width="78" height="40" rx="20"></rect>
    </g>
</svg>
